<svg xmlns="http://www.w3.org/2000/svg" width="600" height="400"><path fill="#0033ab" fill-rule="evenodd" d="M0 0h600v400H0z"/><path fill="#00843d" d="M182.8 198.3a9 9 0 0 1-2.6-1.6q-1.6-1.3-4.6-5.3a17 17 0 0 0-4.8-4.7 22 22 0 0 0-10.6-2.5 9 9 0 0 0-2.9.4l-2.5.9q-1 .4-.3.4l5.3.7 1 .2q5.3 1 8 2.1a10 10 0 0 1 2.5 1.4q1 .7-.5.9l-.9.2 1.2 1a8 8 0 0 1 2.4 2.3c.4.8 1 1.5.3 1.4l-1.5-.5a8 8 0 0 1-2.9-.5l-1.9-.8c-.7 0-.7-.2.3 1l1.3 1.7q.6 1 0 1.1a11 11 0 0 1-3.3-1.4l-2.6-2.5c-.8-.8-3-2.5-4.2-3.4a13 13 0 0 0-5.4-2c-1-.1-2.6-.3-2.7-.1q-.5.1.1.4 2.1.6 4.7 3.2 1.4 1.2 2 2.3 1 1.5.8 2c0 .2.5.5-.2.4-.5 0-1.5 0-2-.2s-1.9-.7-2.2-1a10 10 0 0 1-2.1-2l-1.7-1.9c-1.2-1-1.7-1.4-2.9-1.7a11 11 0 0 0-6.2.5l-5.3 2-1.8.7-2.3.8c-2.3.6-5.8 2-9 3.4-3.4 1.4-6.3 4-9.3 6.5s-4.2 4.2-6 6a22 22 0 0 0-3.7 4.7c-.3-.1.4-3 1.5-5.8s3-5.8 2.8-5.6c-.8.4 2.6-3 8-6 4.2-2.2 9.9-3.6 13.4-4.8 3.1-1 3.9-1.3 5.2-2.6q1.5-1.5 1.7-2.8l.7-2.5.5-1.2 1.2-2.7c.7-1.1 2.3-2.6 2.7-2.5s.4 2.3 0 4.2l-1.4 3.7q-.1.4.1.3c.2 0 1-1 1.5-1.6.6-.8 1.5-2.4 1.9-3.3l1.3-4.1q.7-3.1 1.2-4.6c.4-.8 1.4-1.8 1.7-1.8l.2 1q0 .7.2 1c.2.8 0 .7 1.1-.4l2-1.8q.4-.3.6 1.5a4 4 0 0 1-.4 2.8v.2q0 .2 1.3-1c.7-.6 1.3-.6 1 .1l-.3.9a7 7 0 0 1-2.4 4 34 34 0 0 1-4.5 3.7l-2.5 2-1 1.2q-.4.6 0 .5s2.2-.5 3.3-1a11 11 0 0 0 2.9-1.5c1.7-1.3 2.4-2 4-4.8 2-3.2 2.4-5 1.6-7.2l-1.1-2.4c-2-2.4-2.7-5.2-2.3-6.4.2-.6.8-.5 1 .2.3.8 1.5 1.8 2 1.8l.2-.5v-2.6q-.1-.7.2-.5c.4.1 1.7 1.1 2 1.8q.3.7.3-.1 0-.4.2-.4l.1.2a13 13 0 0 1 1 10.3 16 16 0 0 1-1.6 3.3c-.7 1.3-.7 1.3-1.7 2.6l-2.7 3.3-.8 1c.1.1 1.7-.3 2.6-.7a13 13 0 0 0 5.2-5.1c.3-.5.8-2.2 1.1-3q1-1.8 1-4.3c0-1.7-.4-3-1.3-5-.6-1.2-.6-1.1-.8-2-.4-1.5-.6-3.8-.1-3.8l.7.5q.5.5.7.4t.1-.7c0-.8 0-.9.3-1.3l.4-1 .4-.5q.6-.2 1.3 1.2c.6.9.6 1 .8 1s.3-.2 1-1.8q1-2.6 1.4-2.5c.3 0 .6 4 .4 5.7-.1.8-.2 1.1-1 3.5q-1.6 4.7-1.1 4.8c.3 0 1.2-1.4 2.3-3.2a9 9 0 0 0 1.3-3.8l-.1-2c-.7-4.2-.8-4.3-.8-6.3q.1-1.9.4-2 .3-1 1.2 1l1.2 3.3.2.9.2 1.2v.5c.1.2.2-.5.3-1.2q.2-1.7-.4-4.4l-.8-2.2-.3-1-.6-1.3q-.5-1.4.8-.5a9 9 0 0 1 2.3 2.5c.4.6.5.7.7 1.3l.2.4.4-1a34 34 0 0 0 .7-6q.2 0 .3.2l.2 1.4a24 24 0 0 1-.5 4.5c-1.7 7.4 1.8 1 2.8-1 1-1.6 2.6-5.2 2.7-5.5.2-.8 0-1.4-.8-2.7l-1.4-2.5a39 39 0 0 1-3.3-7.5q0-.5.3-.2l2.3 3.3q.7.8.8 1.7c-.4.5.1.4.1.5q.5-.3 1.3.8 1 1.2 1.2 1.2v-.4c0-.8-.4-2.6-.9-4l-1.4-3.1-.6-1-.8-1.5-2.8-2.7q-.7-.6-.3-.8c.9-.6 2.7 1 5 4l1.6 2.1q.6 1.1.7-.7c0-1.3 0-1.4.3-1.4l.5.2h1.5l-.1 2.8v2.7c.2.2.1.2.7-.3s.7-.8 1.2-2.3a12 12 0 0 1 5-6.4q.5-.4 1.8-.8 1.6-.6 1 .8c0 .8-.2 1.1-.5 1.8a10 10 0 0 1-2.2 3.7q-.5.5-1.2.6c-1.3 1-1.7 2.6-3 3.3l-1.2 2a13 13 0 0 0-1.7 3.5l-.3.7h.2l1.4-2a16 16 0 0 1 3-3.3 8 8 0 0 1 2.7-1.4q.9-.3 1-.1a1 1 0 0 1 0 1 12 12 0 0 1-1.8 2.8c-1.2 1.4-2 2.2-4.4 4.6l-2.5 2.6c-.8 1-1.4 1.6-3.2 4.7l-1.3 1.7s-.2 1.3-.5 1.3c-2.7 1.6-2.4 4.3-3.9 6.5l-.5.9-1.2 2.5v.2l1-.2q1.5-.3 2 0 .3 0 .6-.3l1.7-.7q.3 0 .1.3l-.2.8-.5.6h1.1c1.2-.1 1.2 0 1.2.3q.2.8-.8 1.8-.8.3-.5.4 1.3.4 1.4.7c.1.3.3.1-.5.3q-1.2.2-1.9.8a8 8 0 0 1-5.8 2c-.9 0-1.5-.2-2.4.3-.6.3-1 .3-1.8 1.4l-3.2 4.5-1.3 1.7-1.2 1.7h.7a46 46 0 0 0 8-4.3l1-.6 1.4-1 2.4-1.7 1-.7 1.5-1.2 2.2-2 1.7-2.4v-1c.1-1-.1-2-.5-4.2-.6-2.9-.3-5 0-6.4.2-.9.8-1.7 1-1.6.3 0 1 1.4 1.1 2.4.2 1.2.2 2 0 5-.3 2-.3 4.5 0 4.7q.4.2 1-1l.6-2.3c.7-2.3.8-2.6 2-3.7l.9-1 .6-.6a11 11 0 0 0 2-2.6c.7-1.4.5-2 .1-4.2l-.2-1.8-.2-2c-.1-1 .2-3.4.5-3.9q0-.3.6.1.9 1.1 1.2 3.6v3.6q0 1.2.2.8l.8-1.4.5-.9.8-1.5.6-1.1.6-.3.9-.3.6-.1c.4 0-.4 1.2-1.1 2.7l-.7 1.3q-.5 1-.4 1.1l.7.1c.7 0 .5-.2.6.1l.2.5q.6.9 0 1.3l-1 .1q-.5.1-.3.3c.3.1 1.7-.3 3.2-.6q1.7-.4 2.4-.4l.4.1v.6c-.3.2-1.1.8-1.8 1l-1.5.3-3 .4c-1 0-1-.2-1.9.4q-.7.4-1.1.9l-1.6 1.7-2.3 2.3c-1 1.3-2 3-2 3.8l-.1.4h.2l.8-.3.8-.7a6 6 0 0 1 1.7-1.8 7 7 0 0 1 2.3-1l1.4-.3 2.5-.4h2l2-.3c0 .4-1 1.4-2.4 1.8l-1.8.6-1.9.6-1.3.4c-1 .4-2.5 1.2-3 1.6q-.7.3-.7.5l.4-.2 3.8-1 3-.4q2-.1 1.4.5-.9 1.2-4.2 2l-5.4 1.5c-.1 0-.8.2-1.2.5l-2.3 1.6-3.4 2.8-1.7 1.7q-.3.4.5.2 2.1-.6 4.4-1.7a10 10 0 0 0 2.4-1.7c1-.9 1.6-1 2.7-1.6a11 11 0 0 1 4.6-1.1q1.2 0 1.5.2.5.3-1 1.1l-1.6 1c0 .1-.3.4 0 .5l1 .5q0 .3-.5.8l-2 1.3c-.7-1 .5.2.9.3 1.1.3 2 1 2.1 1.2q-.1.3-1 .4l-2.2.6h-4c-3.3-.1-4.6-.3-6.4 0q-3.5.6-5.8 2c-.7.5-2.2 1.2-2.3 1.4s.2.4 3 .5c4.8.2 5.6.1 9.1-1l3-.8 1.2.1q.1.2-.4.6l-.7 1.1q-.1.3 1.5.3 1.4.2 1.7.7.3.1-.2.4-1.1.8-1 1.2c.1.4-.4 0 1.5.5l2.1.7c.3 0 1 0 1 .3q-.5.8-1 .8-1 .4-2.3.6c-.7.1-1.1.3-2.2.3h-1.6l-1.5-.1-1.7-.3-1.4-.3-2.1-.7-2-.8-3.3-1c-2.8-.7-4.2-.9-5-.9l-2 .1-2 .6-1.2.4c0 .1.1.2 1.3.2 2 0 3.3.3 5.8 1 .9.2 2.4.8 3.4 1.2l2 .8 1.3.5 2.3 1.2 2 1c1.3.8 3 2.5 3 2.8l-.6.3c-1.5.4-1.4.1-1 .7a7 7 0 0 0 2.2 1.8c1.5.9 2 1 1.7 1.2-.3.3-1.2.6-1.7.4l-1.8-.3c-.2.3-.6 0-.8.3q0 .6.9 2c.3.5.9 1.3.6 1.3z"/><path fill="#121212" d="m150.3 215.3-1-1.2-1-1.5-.6-.7a57 57 0 0 0-9.6-9.6l-3.8-2.7-3-1.8-.8-.4-3.4-1.4c-.5 0-3.8 1.5-6 2.8a48 48 0 0 0-5.4 3.7 65 65 0 0 0-8.5 8.1l-3.6 4.6q-.3.2-.1-1a22 22 0 0 1 1.5-4.7v-.4a49 49 0 0 1 3-6l4-3.2a44 44 0 0 1 10-5l.5-.3q0-.2-.6-.4l-1.9-.7-2-.8c-.6-.1-1.6-.5-4-1.4-2.8-1-3.5-1.2-5.1-1.3l-1.8.1a8 8 0 0 0-4.8 3.5 8 8 0 0 1-5 3.2l-1 .1c-1 0-1 0-.8-.7a11 11 0 0 1 3.3-4.7 14 14 0 0 1 2.7-2.1l.8-.5q.1-.4-2-.1-1.8.2-3.6 1a26 26 0 0 0-5.5 4.1 28 28 0 0 1-3.7 3.1c-.5.3-1.8.7-2.5.9h-.6v-.6q0-.6 1.2-2l.7-1-1.3.4a7 7 0 0 1-2.3.6l-2.5.5q-.6.4-.4-.1a5 5 0 0 1 1.2-2.2l2-1.7q1-.7.4-.8-1.9-.3-.9-1.1a7 7 0 0 1 2.5-1.4 41 41 0 0 1 6-1.7l1.2-.2 1.7-.3 2.2-.3c3.3-.5 3-.4 3-.6 0-.3-2.5-1-4.2-1.1a30 30 0 0 0-10.7 1.8l-1 .4q-1.8.8-4.7 4.7l-3 3.8a12 12 0 0 1-3.9 2.8l-1.6.4c-.4 0-.4-.1.4-1.4l.6-1c.4-1 .4-1.1.2-1.2l-1.7.1q-.8.1-1.6 0-1-.3-1-.5c-.1 0 0-.2 1.8-1.2l1.7-1.2q1.2-1 0-1l-1-.4v-.3c.5-1 3.3-3 6-4.2l2.7-1.2 1.6-.6 4-1.3a30 30 0 0 1 5.5-1q.3-.2-.6-.5l-3-.5a25 25 0 0 0-8.2 1.8c-1.6.7-4.1 1.5-5.6 1.7l-.8.1a22 22 0 0 1-6.6 0 9 9 0 0 1-3-1.3q-.5-.5 0-.6h.3l.8-.3 1.5-.4c1.5-.5 1.8-.6 1.8-.8q0-.3-.9-.8l-.6-.4.9-.6 1.6-.4.9-.1q.2-.1-.5-1-.8-.7-.3-.9h1.5l3.8 1.1.7.3 2.4.5h5.9q2.6 0 .6-1l-2.4-1.4a17 17 0 0 0-5.6-1.3h-6.7a12 12 0 0 1-4.8-.7q-1.1-.3-1-.5c0-.3 1.2-1 2-1.3q1-.2 0-.7c-.8-.4-1.6-1.4-1.5-1.8l.2-.2q.3 0 .5-.2.8-.2-.9-1.1a4 4 0 0 1-1.5-1.2v-.3c.5-.4 2.1-.5 3.3-.2a16 16 0 0 1 3.6 1.3l2.4 1.7a12 12 0 0 0 4.3 2.5l2.3.6q.4 0-.5-.9a42 42 0 0 0-4.7-3.9l-1.3-1c-.5-.4-.7-.4-1.7-.8l-4.6-1.1c-1.2-.2-2.8-.7-3.4-1a4 4 0 0 1-1.6-1.5q-.1-.4 0-.4c.3-.2 2.6-.2 3.7 0l3.3.7-1.4-.8-3.8-1.4a11 11 0 0 1-3.4-1.4l-1.3-1.2h1.2l2.4.3q2.6 0 4.8.7c.7.1 2 .8 2.7 1.3l1.6 1.7q.3.6.7.7.6.3.6 0c.1-.2-.4-1.4-.8-2.2l-.9-1.2-.4.2q-.6.3-1.2.2l-.3-.6q0-.4-.7-.5l-1.3-.5-.6-.9-.1-.4h-1q-1 0-1.1-.2-.4-.2-.4-.8 0-.8 1-1.6.5-.3.3-.4l-2.8-.2h-.3v.6q0 .7-.3 1.1-.7 1.2-1.7.8c-.4-.3-.5-.4-.6-1.1v-.7l-.3.3-1.2 1.2q-1.2.5-1.3-.8 0-1 1.1-2.1l.4-.4q-.1-.3-.5-.4l-.3.3-.7.4c-.4.2-.4.2-1.3.2q-1.3.1-1.4-.4-.3-.4 0-1 .5-.7 2.3-.9 1 .1.7-.4v-1q.1-.4-.5-.8l-2.3-1.8-3.2-3.3q-2-2.6-1.8-3l1.9.5c1.5.6 2.4 1.2 4 2.6l1 .8 1.6 1.5 2.9 2.6h.6q1.1-.4 1.5.8 0 .3.3.4h.7l-.3-.9-1.1-2.3-.9-1.6-.6.1q-1.2.7-2 .3-.5-.2-.6-1 0-.5.6-1.1.4-.4-.4-.4-1.3-.2-1.8-1a2 2 0 0 1 0-1.4q.1-.5-.4-.6l-2.2-1.1-1.1-1-1.2-1q-1.8-.7 0-.8 1.7-.2 2.9 0a9 9 0 0 1 3 .8l.6.2q.3.1-.4-1.5l-1-2.8q-.2-.6-.7.3-.7.9-1.5 1.5t-1.1.4q-.2 0 .3-1l.3-.8q0-.3-.1-.1H50q-.5 0-.7-.2l-.4-.6-.2-.4h-.5a3 3 0 0 1-1.7 0q-.8-.5-.6-1.7a2 2 0 0 1 1.2-1.2l.4-.2v-1.4q.4-.8 1.1-1.3.3 0 .3-.2l-.8-.8-1.5-1.5-.5-.7c-.5-.6-1-1.5-1-1.8v-.2h.5q1.2 0 2.8 1c1 .5 1.5 1 2.5 2s1.1 1 1.1 0l-.1-1.6-.2-1.8q-.2-1.5-.8-.6l-.6.6q-1 .5-1.4-.4-.3-.5 0-1.4v-.7l-.6-.2q-1-.2-1.3-1c-.6-1 0-2.1 1.5-2.3q.7.1.4-.5-.5-1.2-.2-2a2 2 0 0 1 2-.7q.8.2 1.1.9l.4.4.5-.2c.7-.5 1.7-.8 2.1-.7q.6.1.6 1 0 1.3-1 2.4l-.1.4.4.4q1.7 1.6.7 2.5-.5.5-1.5.2h-.5v3.6q.3 1.8.7.5a16 16 0 0 1 2.7-4.6q.7-.6.8-.5c0 .1.2 1.5.1 2.3a8 8 0 0 1-.9 3.5l-.4 1h.6q1 0 1.4.3 1.1 1-.6 2.3-.3 0-.3.3t.3.4q.6.7.7 1.4t-.4 1.3q-.9 1-3 .2-.3-.2-.4 0v.7a25 25 0 0 0 1.6 4.7q.2.9.7-.8 1.3-3.6 2.7-5 .6-.8.9-.7l-.5 4.9q-.1.1.2.2l.7-.6q.6-.6.7-.5v.6c0 1-.3 1.6-1.1 3.1q-.5.7.1.7c.8.1 1.4.9 1.3 1.5q-.3 1.1-1.8 2.3l-.5.5.6.3q1.1.3 1.5 1 .5.5.5 1 0 1-.9 1.2l-.5.2 1.1 2.3q.7 1.4.9 1.4v-.6c0-1.9.3-3.8.6-4.7q.6-1.7 1.5-2 .2-.3.3 0 .2 0 .4 1.6c.3 1.4.2 2.7-.3 5.8q-.2.8.4.5 1-.3 1.6.2.4 0 .6.4l.2.3.7-.2q1.8-.3 2.2.5a2 2 0 0 1-.1 1.7q-.4.3 0 .7.3.2.3.8l-.2 1c-.3.6-.3.6 0 .8q.6.4.5 1-.1 1.3-2 1H69l.6.7c.7.8 1 1.4 1.7 4l.7 2q.2.3.3 0l.1-1.3c0-1.2 0-2.1-.2-3.7l-.1-2a8 8 0 0 1 .9-4.2q.4-.8.6-.6.8.5 1.2 1.8c.3.7.3 3 .1 4.5l-.2 1.5-.3 1.9-.2 3c0 .8.2 1.1.7 1.7l.5.7c.5.8 3.1 3.2 4.6 4.1l1.1 1 6 3.9 3.8 2c1.7.8 2 1 2.1.8q.3 0-.7-1.2l-1.1-1.5-1.4-2-1.4-1.8-1-1.5a5 5 0 0 0-1.9-.9l-1.8-.1c-2.5-.1-3.8-.5-5.1-1.6a3 3 0 0 0-1.7-1c-.9-.2-1.1-.3-1.4-.5q-.3-.4.7-.7l.4-.3-.3-.5q-.7-.7-.6-1.5c0-.7 0-.7 1-.5h.8q.3 0 0-.5t-.4-1.1q0-.2.3-.3.7 0 2 1 .4.3.7.1l1.7.1q1 .4.4-.6l-1-1.8-.3.1q-.2.2-.8.2-.5 0-.7-.2a1 1 0 0 1-.5-.9q0-.4-.3-.4t-.6-.5q-.1-.4-.8-.1h-.5a1 1 0 0 1-.6-1l.3-.6.4-.3V156l-.2-.6q.1-.1-.5-.7a1 1 0 0 1 0-1.4q.6-.2 0-1l-1-1.7c-1.9-3.2-2-3.3-4.2-5.6-4-4-4.2-4.3-5.7-6.1q-1.7-2.2-1.8-3.4v-.3h.4a7 7 0 0 1 3.2 1.2c1.3 1 2.3 2 3.6 3.9q1 1.3.5 0t-1.3-2.7l-1.3-1.8h-.4q-1.5.1-2.8-1.3c-.6-.7-.6-1-.5-1.8q.1-.2-.4-.8-1.4-1.3-2.4-4.5l-.3-1.9v-.2h.5c1 .1 2.6.8 3.6 1.5q1 .9 2 2.1c.7 1 1.8 3.2 2.2 4.6.4 1 1 2 1.4 1.9h.1v-4.7q.1-.2-.4-.2H70q-.6-.4-.4-1c0-.7 0-.7-.3-.8q-1.5-.6-1-2l.2-.4-.3-.5c-.2-.4-.2-.4-.2-1.2l.1-1q.6-1 1.7-.7.8.1.8 0 0-.4-1.6-1l-.8-.4-2.2-1.2-2.1-1.7a8 8 0 0 1-1.6-2l-1.3-1.9q-.5-.6-.3-.7l1.3.2 3.4 1.9 1.2.7h.1q-.2-.4-1.5-1.6a23 23 0 0 1-3.6-4q-.4-.6-.3-.8c.2-.5 2.4.7 4.2 2.3L69 116q.3.4.5.3t-.3-.5q-.3-.4.7-.1h.5q.1 0 0-.8c-.1-1-.6-3-.7-3q0-.4-.6.5-.4.6-1.1.7t-1-.4v-2q.3-.4.1-.5h-.7q-.7 0-1-.2l-.6-.5q-.2-.3-.2-.9t.2-.8q.4-.6 1.8-.7l.8-.2-.2-.6-.3-1.1q-.1-1 .5-1.6 1-1 2.3-.1.7.6 1 2 0 .5.7-.2.9-.7 1.5-.7.8 0 1.3.7t0 1.5T73 108q-1 .5-.2.7 1.4.6 2 1.2 1 1.7-.7 2.3-.7.1-1.8-.4l-.7-.3q-.1.1.1 1.4l.5 3q0 1.7.6.9l.3-.3q.4.2.6 1.7l.1.5q.2.1.7-.6l.6-.7.3-.5-.4-.3q-1-.4-.9-1.6.2-1.5 1.8-1.3h.5v-.7q.1-1 .5-1.4t1-.4q.7.2 1.3 1.2.2.7.7.1.9-1 2-.7.9.4 1 1.4 0 .6-.7 1.3-.6.5 0 .7.8.4.6 1.5-.1 1.3-1 1.6H81q-.7 0-.6.5-.2 1.2-.8 1.7l-.6.3q-.8 0-1.3-.6-.4-.3-.6-1.4t-.4-.9c-.3 0-1.2 1-1.8 2l-.6 1q-.2.2.7.3 1.2.1 1.6.7.3.3 0 1.1v.6l.4.3q.9.4.6 1.3 0 .8-.5 1l-1.3.3-.5.1.3.4q.6.5.5 1.2t-.6 1h-.7l-.4-.1H74q-.2.1-.1 1 0 1.8.4 1.6l1.3-1.7a21 21 0 0 1 3.7-4l1.2-.4q.5 0 1 .4l.1.4-.4.4q-1.2.8-.5.9c1 .3 1 1.2 0 1.6q-.5.1-.4.7-.2 1.1-1.2 1.3-.5-.1-.5.5-.3.7-1 .9l-.5-.1-.4-.2q-.3.2-1.3 2.7c-.7 1.7-1.1 3.6-.8 3.7l.6-.7q.8-1 1.2-1 .2 0 .3-.6c.2-.7.5-1.2 1.9-3.2l1.3-1.9.4-.4q.8.5-1.3 5.1l-3 5.8-1.1 2.2a3 3 0 0 0 .4 1.7l3 6q1.6 2.6 2 2.7l.1-.3-.4-2.6-.5-4c0-1.4 0-1.3-.6-1q-.3.2-.8.2-.8.1-1-.5-.5-.8.2-2 .2-.3.1-.4l-.1-.2-.8-.8q-.5-1 .6-1.6l1-.1h.8l.1-.7q0-1 .6-1.5.8-.7 1.7-.4.8.4.8 2v.6h.5q.6 0 1 .2t.5.8q0 1-1.1 1.4l-.4.2.3.4q.9 1 .6 1.7-.1.6-.8.9t-1.5-.4c-.6-.6-.6-.6-.6.8l.2 2.4q.3 2.4.7 1.5l.5-.8a8 8 0 0 1 3.2-2.9q.5-.1.6.1l-.2.6a28 28 0 0 0-2.5 7.2v1.8q.3.3.5-.8l1-3.3c.6-1 1.2-2 1.5-2q.2 0 .3.4c.5 1 .3 4.2-.4 8.5-.3 1.9-.3 2.3-.1 2.9q.4 1.5 1.3 3 1.5 2.6 1.8 2.6.3.1 0-1l-.3-1-.3-1-1.3-4.3-.1-3.5c0-1.2.3-2.7.4-2.8s.4 0 .7.4q.5.5 1 2l.8 1.8q.2.2.6-.6.6-1.1 1.4-1.5.5-.4.6.4 0 .5.4 1 .4.8.4 1.5v.5l.6-.2q.6-.6 1-.6.5-.2.3.8l-.1 1.4a10 10 0 0 1-1 4 11 11 0 0 0-1.4 4.2v1.8l.6 2.8 1.5 3c.3.6 1.3 1.8 1.8 2.5q2.2 2.4 4.3 3.1 1.3.6 0-1a29 29 0 0 1-4.5-6.1l-1-2.9a9 9 0 0 1-.6-3.7q0-2 .6-4c.5-1.5 1.3-3.1 1.5-3.3q.3-.2.3.5 0 .8.6 0 1.2-1.3 2-1.2.3-.1 0 .5c-.3.7-.3 1-.3 1.9q.1 1.3.3 1.3l.8-.5q.9-.7 1.2-1.7 0-.5.3-.3 1 .4.8 1.8l-.7 2.3a12 12 0 0 1-1.8 3.2 6 6 0 0 0-1.2 5.9c.3.8 1 2.3 1.5 3.1 2.2 3.6 2.3 3.6 4.5 5.4a13 13 0 0 0 4.9 2q.6.3.7.1v-.2l-1.1-1.2-.7-.6-2.8-2.2c-1.4-1-2-1.5-3.3-2.8a7 7 0 0 1-2.4-3.8l-.4-1.3c-.3-.7-.3-.7 0-.8q.3-.2 1.5.8.2.3.4.3v-.5l.1-2.2v-1l.1-.6h.3l2.3 2.1q1 1.1 1 .3l.2-1.2q-.1-1.3.4-.7a5 5 0 0 1 1.8 2.3c.4 1 .6 1.6 1.2 4 .4 1.7 1 3.5 1.5 4.6a14 14 0 0 0 2 3.4q.3.3.4.1l-.1-.6a15 15 0 0 1-1-5.4q0-1.3.3-1.2a6 6 0 0 1 2.7 2.3 20 20 0 0 1 2.6 6.6q.3 1.5 2 3.1c1.1 1.1 1.9 1.5 4.9 2.4 2.4.8 2.2.8 3.1.5l1.3-.4q2.9-.9 3.6-1.3c.6-.3 1.6-1 2.1-1.7a6 6 0 0 0 1.4-2.4l1-3.7c.4-1 1.3-2.5 1.9-3.4a6 6 0 0 1 1.9-1.7l.5-.3v.2q.4.2.4 1.6l-.3 2-.8 3.2q-.1.3 0 .4c.1.1.6-.6 1-1.2a19 19 0 0 0 2.3-5l.5-2 .5-2 .3-.8a6 6 0 0 1 1.7-3.1q.7-.7.8-.5v1q0 1.3.4 1.4c.1 0 .2 0 1.9-1.6q1.5-1.3 1.6-1.1v.7l.1 1.5v1.3q-.2 1.4.7.3.8-.7 1.2-.6.6 0 .1.7l-.4 1.4a7 7 0 0 1-2.1 3.5 25 25 0 0 1-3.9 3.2l-.9.7-1.2 1q-2.3 1.8-2.2 2.3h1a14 14 0 0 0 6.4-3.5q1-1 3.1-4.6.6-1 1-2.3c.3-.7.3-.8.4-1.5a6 6 0 0 0-.7-3.2l-.7-1.2a13 13 0 0 1-2.2-4q-.9-2.7.3-3.4.3-.2.5.4.3.9 1 1.4 1 1 1 .5l.2-1.2v-1.1l-.2-.6q-.4-.8.3-.6t1.5 1l.6.6.1-.4q0-.6.2-.5c.3 0 1.3 2.3 1.8 4l.4 3.4a16 16 0 0 1-1 5.2q-1.6 3.6-5.2 7.6-1.4 1.4.4.7 2.3-.8 4.5-3.6a16 16 0 0 0 2-3.3 9 9 0 0 0 1.2-3.2c.2-1 .2-1.1.2-2.3l-.2-1.9q-.3-1.4-1-2.8c-.8-1.7-1-2.1-1.3-5.6v-.8q.3-.1 1.1.5c.8.6.8.6.9-.4l.2-1.1.5-1 .1-.6q.4-.3 1.2.6l.6.9q.6 1.1.8.4l.5-1.3q1-2.6 1.7-2.7.3-.1.4 1 .3 3.2 0 5.3c0 .8 0 1-.6 2.6l-1.4 4.6.1.2q.1.2 1-1.3l1.5-2.4.2-.6q.8-1.4.6-2.7a57 57 0 0 1-.9-7.3c0-1.7.2-3 .6-3q.6.1 1.4 1.9c.5 1 1 2.7 1.3 4.2q.1.3.2 0v-.8q0-2-1-5l-.6-1.6-.6-1.4c-.5-1-.5-1 0-1s1.2.5 2 1.2a13 13 0 0 1 2 2.6q0 .3.3.1l.5-4.4q.1-1.3-.5-.6-.9 1-1.7.4-.6-.4-.7-1l.1-.8.6-.7q.6-.5.2-.6-1.5-.3-1.5-1.3 0-.7.6-1 .3-.2.9-.1h.6v-.9q0-.8.2-1 .4-.9 1.3-.8 1.5.1 1.6 2l.1.7h1.7q1.8 1 0 2.5l-.3.2.2.5q1.1 2.2-.8 2.5l-.8-.2c-.6-.4-.6-.4-.7.9a45 45 0 0 1-.9 6.4v.6q.2 0 1-.9l2.4-4.3.5-1 1.6-3.2.1-.9v-.5l-.8-1.4-1-1.7-2.5-5c-1-2.3-1.2-3.2-1.3-3.9l.1-.6q.2-.4.4 0l.4.7.5.7.9 1.1a9 9 0 0 1 1.7 3.4h.2q.5.2 1.1 1 .9 1.2.8.2a20 20 0 0 0-2.1-5.8h-.5q-.6.5-1 0t-.5-.8-.5-.4l-.5-.2q-.6-.2-.7-1.1.1-.6-.5-.7-1-.6-.5-1.2l.4-.3.4-.3-.8-.8q-.6-.3-.2-.6.7-.6 1.4-.3 1.8.7 4.6 4.4c1.2 1.7 1.3 1.8 1.5 1.5l.1-1.2c0-1.3 0-1.4-.3-1.3h-.6q-.9.1-1-.9-.2-.7.4-1.2.7-.7-.4-.6-.9 0-1.2-.3-.5-.6-.5-1.4c0-.8.2-.6.7-.8s.5-.3.4-.9q-.3-.8.1-1.2.5-.5 1.6-.6l.6-.1c0-.2-1-2-1.5-2.5q-.5-.6-.9-.7c-.4-.1-.1 0-.3.8q-.2 1-.7 1.5l-.6.4q-.4.2-.7.1l-.5-.1-.8-1.5c-.1-.8 0-.7-.7-.7q-1.1 0-1.5-.7-.5-1-.2-2 .3-.5.7-.6t-.2-.8-.6-1.1c0-1.5 2-1.9 3-.6l.4.3.3-.4q.3-.8.8-1.1.9-.4 1.6.5.4.6.3 1.4v.3q.1.3.5.1c1 0 1.9.5 1.9 1.5q0 1-1 1.4-.6.3 0 .8l.6.8q.6.9.7.3l.2-.8q.1-1 .5-1.1l.3.2q.5.6.5-.2l.6-4 .1-1-.7.3q-1.7.8-2.5 0a1 1 0 0 1-.3-1.2q0-.3.5-.8a5 5 0 0 1 1.8-1q.7-.4-.2-.7c-1-.6-1.6-1.7-1.4-2.4q.3-1 1.5-1 .7.1 1.6.8.5.6.6.1.3-1.4.8-2c.8-.7 2.2-.5 2.7.5.2.4.2.4.2 1s0 .7-.3 1.2l-.2.7.8.1q1.5 0 1.9.9.3.6.1 1.1-.3 1.2-1.9 1.1-1-.2-.5.6.3 1 .1 1.7c-.2.7-1.1.9-1.8.4l-.5-.7q-.2-.7-.5-.4c-.1.4-.8 3.1-.8 3.6q-.1.5.8.3t.4.2 0 .6l.1-.2 3.8-3.6 2.1-1.6q1.9-1 2-.6c.2.7-1.3 2.3-5 5.8q-.6.6-.3.6l1.3-.9c2-1.3 3-1.7 4-1.9q1.1-.1.3.6l-1.4 2a16 16 0 0 1-3 3.2 15 15 0 0 1-3.4 1.8l-1.6.8q-.2.4 0 .5l.6-.1q.8-.1 1.3.2l.3.4c.4.6.3 1.7-.1 2.4q-.3.3 0 .7.5 1.1-.5 1.8l-.5.2q-.5 0-.4.3.4 1-.4 1.4-.3.3-.9.2h-.5l-.1.1v4.6q0 .2.2 0c.2 0 .7-.8 1-1.2l.3-.9c.7-1.8 1-2.2 1.7-3.6a9 9 0 0 1 5-4l1.5-.2v1.4a13 13 0 0 1-3 5.5q-.3.2 0 .6t-.2 1q-.6 1.2-2.1 1.8h-1q-.5 0-.6.2c-.2.1-1.6 2.4-2 3l-.7 2h.2l.7-1q2.2-3 4.7-4.2l2-.6q.4 0 .3.3 0 1-1.5 3l-.7.8c-.5.7-3.7 4.2-5.4 5.8L181 148l-1.3 2-1 1.6-1 1.8.3.3q.6.4.3 1 0 .3-.6.7l-.1.5q0 .4-.2.6-.3.3 0 .7v1l.3.2q.8.6 0 1.4-.3.4-1 .1l-.3-.1-.1.2q-.3.5-.7.6t-.4.4l-.1.5q-.1.3-.5.4-.9.4-1.4 0-.1-.2-.3-.2l-1 1.8q-.4.7-.2.8h.7l1.3-.2 1-.1c.6-.5 1.6-1 2-.9h.3v.4q0 .4-.3.8-.3.6-.1.7l1.4-.1q.5-.1.5.5l-.2.8-.5.8-.3.5.2.2q1.3.4 1 .7t-1.3.6c-1 .2-1.2.3-1.7.7q-1.1 1.2-3 1.5-.5.2-2.1.2c-1.8 0-2.2.1-3 .5-.7.2-.8.4-1.5 1.4l-5 7q0 .2.7 0l1.2-.6a43 43 0 0 0 6-3.3l1.2-.8 3.6-2.5c2.1-1.4 4.1-3.2 5.2-4.6.8-1 .9-1.2 1-2s0-1.7-.3-3.7c-.9-5.2-.7-7.6.6-8.8q.5-.5.7-.3a8 8 0 0 1 1 2.8c.2 1.2.2 2-.1 5-.2 2-.2 4 0 4.1q0 .2.2 0t.9-2.2c.2-1 .7-2.4 1-3l.7-1q.7-.8 0-.7-1.7.3-2-.5t.4-1.4l.2-.2-.2-.6q-.5-1.2 0-1.8l.3-.5-.2-.4a2 2 0 0 1-.1-1.5q.5-.9 2-.6c1 .2.9.2 1.2 0q.5-.7 1.3-.6h1.3v-1l-.4-2.8q-.2-1.9.3-3.5.2-1.3.8-.6c.6.3 1.2 1.8 1.5 3.4v2.2l.2 1.7a.1.1 0 0 0 .2 0l1.9-3.7-.5-.2q-.7-.2-.8-.7-.4-1.5 1.5-2.4l.6-.3q.3 0 .4-.3l-.5-.4q-1.6-1.1-1.7-2.4 0-1 1.2-1.4.7 0 .2-.7a7 7 0 0 1-1.2-3v-.7l.8.6.7.6q.3 0 .2-.3l-.2-1.2-.4-2.6.1-1 1 .7c.8.9 2 3.1 2.6 5.2q.4 1.6.9.1l1.2-3.9q.3-1.2.1-1 0-.2-.4 0-1.3.5-2.3.2-.7-.2-.9-.8l-.1-1q0-.6.7-1.4l.2-.3-.3-.3-.6-.5q-.9-1.2.3-1.9.3-.2 1-.2h.8l-.3-.8a8 8 0 0 1-1-4.1l.1-1.7c.5-.5 2.7 2.8 3.6 5.3q0 .3.3.3l.3-1.4.1-2c0-1.5 0-1.5-.6-1.3q-1.2.3-1.6-.4l-.2-.5c-.1-.5 0-.7.8-1.5q.9-.8.6-1l-.9-1.3-.1-1 .1-1q.4-.3 1.3 0l1.4.6q.4.3.6-.1a2 2 0 0 1 1.7-1.2q1 0 1.4.8.4 1-.2 2.1v.3q-.1.2.5.2 1.8.3 1.6 1.8c-.2.9-.5 1.1-1.8 1.5q-.5 0-.2.6v1.5a1 1 0 0 1-.7.6q-.7.2-1.6-1-.2-.3-.3-.1l-.2.5-.1 1c-.3 1.6-.4 3.6-.3 3.6q.1.1 1.1-.8c1.5-1.4 2.5-2.1 3.9-2.6l1.8-.3q.2 0 .1.3-.1.5-1 1.8l-2.4 2.5q-.7.5 0 .7.5.3.8 1l.2 1v.5l.4.2q1.4.9 1.2 2-.2.7-.6 1c-.3.2-1.1.2-1.6 0h-.5l-.3.3q-.5 1-1.4.8h-.4l.3 1q.4.7.3.8 0 .3-.8-.1a6 6 0 0 1-2-2q-.1-.3-.3-.3l-.4.9-.8 2.2-.5 1.4 1-.2q1.1-.5 2.4-.7h3.6q.9.2-.3.8-.7.3-1.3 1l-2 1.4-1 .4-.7.4v.6q.3.7 0 1.2-.5.9-1.8 1l-.6.1.3.5q.5.8.4 1.3-.2.9-1.2.8a2 2 0 0 1-1.3-.4l-.5-.3-1.5 2.8-1 2q0 .4.6.3.4 0 .6-.7 0-.4.3-.5.5-.4 1.1-.2h.5c.4 0 1.5-1.1 2.7-2.3l2.8-2.5 1.2-1a9 9 0 0 1 3.8-2q1.2-.2 1 .1c0 .3-1 1.7-1.8 2.8a53 53 0 0 1-6 5.4v1.8l-.1.1h.7q1.5.1 2 .7.7.7.2 1.4-.4.4-1.6.4-1.1 0-1.6-.7t-.7-.2q-.3.3.2.6a4 4 0 0 1 1 1.6q.4 1-.2 1.4l-.4.2q-.7 0-1.6-1.4l-.4-.5-.1.6q0 1.1-.6 1.3-.5.4-1 0-1-.4-1-2v-.5h-1.8q-2.1.1-1 .7.8.5 1 1.3.1.6-.2.9t-1.5.3h-.8l-.2.5-.3.6a3 3 0 0 1-1.5.7l-.6.1-.1.5q-.1.7-.8.6-.6 0-.9-.3l-.2-.1c-.5 0-2.1 3.2-1.7 3.5l1-.4.4-.6q.7-1 1.5-1.6l.5-.4.2-.1.6-.2.6-.3.4-.2 2-.5 3.3-.3 2.1-.2h1.3l-.9 1c-.7.6-1.5 1-3.6 1.5a22 22 0 0 0-4.3 1.6l-.3.2-.9.5h.5l2.3-.6c1.3-.3 4.1-.3 4.4 0q0 .3-.6 1c-.9.8-2 1.3-4.8 1.8l-3.7.9-1 .3-1.2.6a68 68 0 0 0-5.9 4.6q-1.1 1.1-.7 1.2a15 15 0 0 0 3.4-1q1.7-.8 3.2-2a9 9 0 0 1 2.4-1.7c1-.5 1.6-.7 2.7-1a8 8 0 0 1 2.7-.4q.8 0 1.1.2l.4.2q0 .3-.7 1l-1 .5q-1.8.9-.5 1.2.6 0 .5.3 0 .6-1.6 1.7l-.5.3q-.1.3.4.4l2 1q.3.4.1.4 0 .2-2.2.7l-1.2.3h-9.2l-3.8.7q-2.1.6-4.2 2-.9.6-.7.7c.1.1 2.6.3 4.5.3 2.6 0 3.8 0 5.9-.7l1-.3 1.2-.4 2.5-.5q.8 0 .8.4l-.4.6q-.8.8-.5 1l1 .1 1.1.2c.5.2 1.3.7 1.3.9l-.7.4q-1.2.6-.8 1l4.6 1.4-.2.4q-.9.8-3.9 1.4a22 22 0 0 1-4.2.1l-1.2-.2q-1 0-2.2-.4l-.8-.2a25 25 0 0 1-4.7-1.8l-5.3-1.3c-1-.1-2.2-.2-2-.3q.2-.2 3.2.3l5 1.4a28 28 0 0 0 4.5 1.6c3.3.9 7.2.9 9.7 0l1.5-.7c0-.2 0-.2-3.5-1.3l-.8-.3q-.2 0 0-.5t.8-.7q.6-.3.2-.6-.4-.4-1.7-.5l-1.4-.3q0-.3.7-1.1l.3-.5q0-.2-.9-.2c-.4 0-2 .5-3 .8l-3.8 1a45 45 0 0 1-8.6-.3l1.8-1.4q4.3-2.9 11.2-2.5h2.3l1.4.1c.8 0 2 0 2.6-.2l1-.2c1.4-.4 1.4-.5 1-.8l-2.1-1q-1-.1-.6-.2l.5-.3q.4 0 .7-.3l.5-.3.6-.5q1-.7-.1-1l-.6-.2.1-.3q.2-.5 1.5-1.2 1.1-.5 1.2-.9l-.2-.2h-1.3l-2 .1-3 1.2-2 1.4a13 13 0 0 1-4.3 2.5c-1.6.6-3.7 1.2-3.6 1a7 7 0 0 1 1.6-2l1.2-1 3.8-3 .8-.6 1.2-.6 5.1-1.3q3.4-.6 4.3-1.5.6-.6.3-.7l-2.5-.1a22 22 0 0 0-5.4 1.5l-.7.2q-.4-.2.7-.9l2.4-1.2 1.7-.8 2.4-.8a11 11 0 0 0 3.5-1.4q.5-.4.2-.6l-4 .3q-5.7.5-7.5 3.5l-.4.6-1.2.6q-.3 0-.2-.6a8 8 0 0 1 1-2.5c.6-1 1.1-1.6 2.8-3.3l2-2 1.5-1.2.5-.3h1l2.8-.4.7-.2 2.2-.6q1-.4.9-.7c0-.3-.6-.3-3 .2q-3 .7-3.2.3-.2-.1.8-.4 1-.2.9-.5l-.2-.4-.2-.6q0-.4-.7-.2-.6 0-.8-.2l.6-1.4 1.2-2.4q.7-1.3.4-1.2l-.5.2-.8.3-.5.2-.5 1c-1.3 2.3-2.3 4-2.5 4v-3a9 9 0 0 0-.5-3.6q-.6-1.7-1-1.7-.3-.1-.5 1a12 12 0 0 0 0 3.7l.6 4.8c0 .7 0 .8-.2 1.4q-.3 1-.7 1.7l-1.6 1.9-2.5 2.6-.3.6-1 2.7c0 .5-.6 2-.8 2.3q-.4.7-.6.7-.3.1-.3-1.7l.2-3.3V160q.4-2.6 0-4.3l-.8-1.7h-.3q-.7.4-1 2c-.3 1-.2 3.5.2 5.4l.5 3.5q0 2-.6 3a18 18 0 0 1-4.2 4.2 76 76 0 0 1-7.4 5 52 52 0 0 1-7.6 3.8q-.4.2-.4 0l1-1.4 1.4-1.9 1-1.2 1-1.5 1-1.4 1-1.4q.4-.4 1.6-.8l.7-.2h1.6a9 9 0 0 0 3-.4 5 5 0 0 0 2.2-1.3c.5-.4.7-.6 1.6-.8q.7 0 .9-.3t-1-.6l-.5-.1.4-.4q1.1-.8 1.2-1.7.2-.6-.8-.4h-1.6l.3-.5q.7-.9.6-1 0-.4-.9 0-.5.1-1 .5l-.4.4-.4-.1c-.5-.2-.6-.2-1.8 0-1 .2-1 .2-1 0l1.2-2.6.5-.8v-.8q0-1.6.6-3.3 1.3-2.9 3.4-3.5l.4-.1 1.8-2.8c1.8-3.1 1.7-3 4.3-5.7l5-5.4.4-.3 1-1.3q.7-1 .8-1.7 0-.4-.2-.3-.4 0-1.5.4a11 11 0 0 0-4.3 3.6l-1.4 1.9-.8 1q-.3-.3.5-2.3c.5-1.2 1-2 2.1-3.7.6-.9.6-1 .6-1.3l.2-.7a6 6 0 0 1 2-2h.8q.5 0 .8-.3l.5-.4a14 14 0 0 0 2.4-4.9q.4-1.4-.5-1a8 8 0 0 0-4.2 2.4 17 17 0 0 0-2.8 4.8 8 8 0 0 1-1.3 2.4q-.7.7-.9.5v-5.6h-1.1q-1-.4-.8-.1l-.1 1.2-.2 1.1q0 .1-.2 0l-1.6-2q-3-4-4.3-4.5-1-.2-1.2.2l.5.5 2.2 2q.7.8 1.4 2.1l.6 1.2c.3.4 1.1 2.3 1.4 3.2.5 1.2 1 3 1 3.8q0 .6-.2.5-.2.1-.8-.8-1-1.6-1.6-1.3-.4.2-.3-.3.1-.9-1-2.4l-1.9-2.7q-.5-.5-.2.7l1 2.7a102 102 0 0 0 4.4 8.9 61 61 0 0 1-5 10l-1 .8q-.3 0-.2-.8l.5-2.9.5-5.7q-.2-.6-.4-.5l-.1.7a29 29 0 0 1-.7 5.5q-.1.9-.4 1l-.2-.5a9 9 0 0 0-3.1-4q-1-.8-.4.6a43 43 0 0 1 2 6.4c.3 1.4.1 3.1-.3 3.7l-.1.1-.1-.2-.1-.7a15 15 0 0 0-2.1-6.2q-.5-.7-.7 1a37 37 0 0 0 .7 8c.2 1.6.2 1.8-.1 2.8s-1.6 3.3-2.5 4.4l-1.2 1.4q-.2-.1.1-1.7l1.3-4c.7-2.1.8-2.6.8-4.4l-.2-3.8q-.1-.3-.4 0c-.2.1-.7 1.2-1.2 2.2l-.9 2q-.2 0-.7-1-.7-1.4-1.4-1.5l-.2.4-.4 1-.3.7v.8l-.1.8-1-.5q-.6-.6-.8-.4v1.1c.2 2 .4 3.1 1 4.3a14 14 0 0 1 1.3 3.3v2c0 1.5 0 2.4-.4 3.7a18 18 0 0 1-2.5 4.6 12 12 0 0 1-4.5 4c-.9.5-2.3.8-2.5.7q-.2 0 .7-1a31 31 0 0 0 4.7-6 16 16 0 0 0 1.8-4.7c.2-.9.2-1 .2-2.4 0-1.6 0-2-.4-3.4-.2-1-.9-2.6-1-3q-.4-.3-.4.5l-.1.4-.4-.5a6 6 0 0 0-1.5-1.6q-.3-.3-.4-.1v3.1q0 .9-.7.4a5 5 0 0 1-1.8-2l-.3-.4q-.2 0-.4.5-.2.9 0 2a13 13 0 0 0 1.8 3.6q1.5 2 1.9 3.4l.1 1.6c0 1 0 1.4-.5 2.5-.7 1.7-2.8 5-4 6.3l-2.3 1.8a14 14 0 0 1-5.7 2l-.2-.1q.2-.6 1.2-1.7c1-.8 1.5-1.3 4.4-3.4a24 24 0 0 0 3.8-3.4q.9-1.1 1.2-2.7l.3-.8q.5-1.3-1 0-1 .8-1.3.8l.1-.5.4-1.7-.2-2.2c-.1-.2-.4 0-1.8 1.2l-1.5 1.3c-.3 0-.6-1.1-.5-1.8q0-.5-.2-.6l-1 1.1c-.6.8-1 2-1.6 4.8-.8 3.1-1.5 4.9-2.7 6.9-.6 1-2 2.6-2.2 2.6q-.3 0 .1-.9c.4-.8 1-2.6 1.2-3.7.5-2 .4-3.8 0-3.6a6 6 0 0 0-2.2 2l-.5.7a19 19 0 0 0-2.1 5.8q0 .7-.3 1a9 9 0 0 1-3.6 3.6l-1.3.5-1.2.4-.7.2-9.6 3.3a48 48 0 0 0-7.4 3.9l-1.6 1.2-1.3 1-.9.8c-.6.6-.6.6-1 1.3l-.7 1.5-2 4.3-.3.9c-.4.9-.8 2.7-.8 3v.3l1.1-1.3.4-.6.6-.6.8-1c.4-.6 3.7-4.2 4.1-4.4l1.4-1.4q2-1.8 3.7-3l3-2.2a57 57 0 0 1 6-3.2l5.2-1.9 2-.7 4.7-1.6 1.7-.6c4.1-1.6 4.2-1.6 5.4-1.8a9 9 0 0 1 3 0l1.8.7 1.7 1.3 1.6 1.8a8 8 0 0 0 3.2 2.5c1 .5 2.7.8 3 .7q.3-.2-.2-1.4a12 12 0 0 0-2.3-3 14 14 0 0 0-5-3.5q-.4 0-.4-.2t1.5-.2q3 0 5.5 1.2a24 24 0 0 1 5.8 4.4c2.5 2.3 3.3 3 4.3 3.3l1.6.4.2-.1q.1-.5-1.3-2.1c-1.2-1.5-1.2-1.5-.5-1.5q.4 0 1.3.5c1.2.6 1.2.6 3.3.9l1.2.2q.9.2.3-.6a9 9 0 0 0-2.5-2.6l-1.5-1.3 1-.2q1-.1.8-.4 0-.4-1-.9a13 13 0 0 0-3-1.2l-.5-.1-2.4-.7c-2-.5-4.2-1-5-1l-1.1-.3-3.3-.4-1-.3c0-.2 1.8-1 2.8-1.2l2.7-.4a25 25 0 0 1 12 2.9q1.8 1.3 3.2 3.2l4 5c1.3 1.5 3 2.6 4.2 3q.7.1.7-.1l-.3-.5-.9-2q-.3-1 0-1l2 .3h1.3q.8 0 .6-.3l-.7-.5a10 10 0 0 1-2.8-2.2c-.5-.7-.5-.7.5-1l.8-.2v-.3c0-.3-1.7-1.6-2.7-2.2a41 41 0 0 0-5.3-2.7 66 66 0 0 0-7.3-2.5 19 19 0 0 0-4.4-.7c-1.2 0-1.3 0-1.3-.2s3.3-1.2 4.8-1.3h1c.2.2-.6.2-.8.2q-3.3.5-3.4.8-.3.1.7.3a38 38 0 0 1 13.4 4.3 32 32 0 0 1 4.7 3c.5.4 1.1 1.2 1.1 1.3q0 .2-.9.4l-.6.2q-.7.4 3.3 3l.6.4-.8.4q-1 .4-2.2 0l-1-.1q-.4 0-.4.2 0 .7 1.1 2.5l.5.8h-.7a5 5 0 0 1-1.9-.6q-1-.6-2.4-1.8a44 44 0 0 1-4.3-5.3 16 16 0 0 0-3-3.2 13 13 0 0 0-4.1-2c-3-1-7-1.5-9.2-1.1-1.3.1-3 .6-3.5.9q-.5.3 1 .4a92 92 0 0 1 13 3 8 8 0 0 1 2.3 1.3q.9.9-.6 1.1-.5 0-.5.2-.2 0 .6.7a9 9 0 0 1 2.7 2.7c.4.6.7 1.6.6 1.6a5 5 0 0 0-2-.6c-2.4-.4-2.5-.4-3.4-.9q-1.3-.7-1.2-.3l1 1.4q.9 1 .8 1.7c0 .5 0 .5-1 .3a6 6 0 0 1-2.3-1c-.5-.3-2.5-2-3.7-3.3a20 20 0 0 0-5.2-3.8 11 11 0 0 0-5.5-1l.5.4q1.3.6 3.1 2.4 1.4 1.2 2.2 2.5a6 6 0 0 1 1 2.3v.6h-1.4a8 8 0 0 1-5.3-3.4 9 9 0 0 0-5-3.5c-.7-.2-2.7-.2-3.3 0l-2.2.6-5.8 2.1-1.5.6-1.5.5q-1.2.4-1 .6l1.7.8 3.7 1.5a43 43 0 0 1 5.7 3.4l2.1 1.8 1 .8q.5.4.6.7l1.4 3.3 1.1 2.3c.8 1.7 1.6 4.6 1.7 5.6q0 .8-.3.4"/><path fill="#00843d" d="m150.2 214.3-.3-1.7-.3-.8a40 40 0 0 0-2.6-6l-.8-1.8q-.1-.5-1-1.2l-1-.9-2.4-1.8a38 38 0 0 0-5-2.8l-4.1-1.8-1.2-.5c-.7-.2-.7-.2-2 .2l-1.5.4c-.3.2-.2.3 1.2.9l4 2a39 39 0 0 1 5.3 3.8 53 53 0 0 1 6.6 6l2.5 3 .8 1 .8 1zm-79.1-16.7a9 9 0 0 0 2.7-1.4 28 28 0 0 0 4.5-5.1q2.6-3.6 4.4-4.6a24 24 0 0 1 11.2-2.6c1 0 1.6 0 3.1.4q1.5.3 2.5 1 .9.3.3.4l-5.4.8-1 .2a52 52 0 0 0-8.3 2q-1.6.7-2.2 1.2-.8.6.7.8l.8.2s0 .2-1.3 1.1a10 10 0 0 0-2.5 2.6q-.8 1.1.3.7l1.1-.2c1.6-.1 2.2-.3 3-.7l1.6-.6q1-.2-.4 1.3l-1.3 1.8q-.5.8.4.6a8 8 0 0 0 2.6-1l2.8-2.5c.8-.8 3-2.7 4.3-3.5a13 13 0 0 1 5.4-2c1-.2 3.1-.1 3.3 0q.2.2-.4.4-2.2.7-4.8 3.2-1.2 1.2-2 2.4-1 1.5-.8 2-.1.2.8 0l1.4-.1c.6-.2 1.7-.7 2-1a10 10 0 0 0 2.2-2c.2-.4 1.3-1.5 1.8-2a7 7 0 0 1 3.1-1.5 11 11 0 0 1 6 .7l5.3 2 1.9.6 2.3.9c.8.3.9.3 1.4.1l2.3-.8c.1-.1-.2-.3-1.8-.8-3.3-1-3.7-1.3-5-2.6a6 6 0 0 1-1.7-2.8l-.7-2.5-.4-1q-.4-1.3-1.4-3c-.7-1.1-2-2.4-2.5-2.3s-.3 2.1.1 4l1.3 3.7q.3.5 0 .5a17 17 0 0 1-3.5-5.1l-1.3-4c-.4-2-1-3.8-1.4-4.6s-1.1-1.8-1.4-1.7q-.2-.2-.2.7l-.2 1.1c-.2.7-.3.7-1.4-.3L103 171q-.3-.4-.5 1.2c-.1 1.3 0 2 .4 2.9l.1.4q-.2.1-1.6-1.1-1.2-1-.7.1l.2.7a7 7 0 0 0 2.4 4.1 34 34 0 0 0 4.4 3.6q1.6 1 2.6 2.1.8.8 1 1.2.3.6.2.7a14 14 0 0 1-3.5-.9q-1.6-.6-3-1.8c-1.8-1.3-2.4-2-4.2-4.8-2-3.2-2.4-5.1-1.7-7.3.3-.7.8-1.8 1.2-2.3 2-2.4 3-5.5 2.3-6.6q-.3-.4-.6.3c-.4.8-1.8 2-2.3 2l-.1-.4a8 8 0 0 1 0-2.7q0-.7-.3-.5c-.4.1-1.4 1.2-1.8 1.9q-.4.7-.4-.2l-.1-.4h-.1a13 13 0 0 0-1 10.3c.4 1.2.8 2 1.5 3.4l1.7 2.6 2.8 3.2.8 1c-.2.2-1.7-.2-2.6-.7l-2.5-1.8c-.9-.8-2.1-2.4-2.7-3.3l-1.5-2.8a12 12 0 0 1-.8-4.5c0-1.7.3-2.8 1.2-4.7l.8-2.2c.4-1.5.6-3.8.4-3.8q-.2 0-.7.5-.7.5-1 .4l-.1-.7c0-.8 0-.8-.2-1.3l-.7-1.5q-.4-.2-1.3 1.1-.7 1.3-.9 1.2c-.2-.1-.3-.3-.9-2q-1-2.4-1.4-2.3c-.3.1-.5 3.8-.3 5.5.1.9.2 1.1 1 3.5 1 3 1.5 5 1.2 5s-1.4-1.4-2.5-3.2q-1.4-2.5-1.5-3.8v-1.4a39 39 0 0 0 .7-9q-.2-1-1.2 1l-1.1 3.2-.2 1-.2 1.1v.6c-.2.1-.5-.6-.6-1.2-.2-1 0-2.9.4-4.5l1.1-3.1.6-1.4q.7-1.4-.5-.5a9 9 0 0 0-2.4 2.5l-.6 1.3-.2.5-.4-1a34 34 0 0 1-.6-5.3q0-.8-.2-.8l-.2.3-.1 1.4c0 1.3.1 2.5.5 4.4q.7 3.8.2 3.7c-.4.1-1.7-1.8-3.2-4.6l-2.7-5.6q-.3-.9 1-2.7c.2-.6.3-.6 1.3-2.4 1.6-3 3-6.4 3.3-7.5q0-.5-.3-.2l-2.4 3.2q-.6 1-.5 1.8v.4h-.4q-.4-.3-1.2.8-1 1.3-1.2 1.2-.2 0-.2-.3c0-.8.5-2.7 1-4.1l1.5-3 .6-1.2.8-1.4 2.8-2.7q.7-.5.3-.8-1.5-.6-5 4l-1.7 2.2q-.6 1.1-.6-.8c0-1.9-.1-1.3-.4-1.3l-.5.1h-.6l-.4.1v2.8c0 2.3 0 2.7-.2 2.8q0 .2-.8-.4c-.5-.5-.7-.9-1.3-2.3-1.3-3.5-2.6-5.3-4.6-6.6l-1.9-.8q-1.4-.6-1 .9l.5 1.7A9 9 0 0 0 65 132q.3.3.9.3.5 0 .8.2c.3.1 1.2.9 1.5 1.2s.5 1 .6 1.3q0 .6.4 1l1.2 2a14 14 0 0 1 1.6 3.7v.6h-.1l-1.5-2a16 16 0 0 0-3-3.2 8 8 0 0 0-2.7-1.5q-.8-.3-.9 0-.1.1.3 1l1.8 2.5 4.3 4.6 2.5 2.5a41 41 0 0 1 3.2 5l1 1.7.6.2q.9.2 1.8 1.2c.6.6.7.7 1 1.5l.8 1.7c.2.8.2.9.2 2v1.2l.6 1L83 164v.2l-1-.1c-1.2-.3-1.6-.3-2-.2q-.3.2-.6-.1l-1.7-1q-.3 0-.1.5l.4.8.3.6h-1.1c-1.2 0-1.3 0-1.3.3q0 .8 1.3 1.8.6.4 0 .4-1.2.3-1.3.5 0 .3 1.1.5 1 .2 1.6.8 1.7 1.8 5.7 1.7 1.3 0 2.5.6c.6.3.7.3 1.5 1.5l3.2 4.4 1.2 1.7 1.3 1.8-.8-.2a46 46 0 0 1-8-4.1l-1-.7-1.4-1-2.3-1.6-1-.7-1.5-1.2-2.2-2-1.7-2.4-.2-1c0-1 0-2 .4-4.3q.8-4.3.3-6.4c-.2-.8-.8-1.7-1.1-1.6s-.9 1.5-1 2.4c-.3 1.2-.2 2.1 0 5 .3 2.1.2 4.5 0 4.8q-.5.1-1-1l-.7-2.4c-.6-2.2-.8-2.6-1.8-3.7l-1.6-1.6a11 11 0 0 1-2-2.6c-.7-1.3-.8-2-.4-4.1l.3-1.9.2-2c.2-1.1 0-3.3-.3-3.8q-.2-.3-.6 0-.9 1.1-1.3 3.7v3.6q.2 1-.1.7l-.8-1.3-.5-1-.8-1.4-.6-1.2-.6-.2-.9-.3q-.4-.3-.5-.2l1.3 2.7.7 1.4q.4.9.2.9H60q-.8 0-.7.3l-.2.6q-.5.6.3.8.5 0 .8.3.5.2.2.3a9 9 0 0 1-3.2-.4l-2.4-.4q-.4 0-.4.2l.2.3 2.1.8 1.3.3 2.8.4c1 0 1.3.1 2 .7q.8.4 1.2.9l1.5 1.7 2.3 2.4c1 1.3 1.8 3 1.9 3.9v.3h-.3l-.8-.3q-.6-.3-.7-.7a6 6 0 0 0-1.8-1.9 9 9 0 0 0-2.6-1.2l-1-.2q-1-.3-2.7-.4l-1.9-.1c-1.4-.2-1.6-.2-1.6 0s1.2 1 2.6 1.5l1.8.5 1.7.6 1.2.5c1 .4 2.5 1.2 3 1.6q.8.6.8.9l-.8-.2c-.7-.4-2.7-1-3.5-1.2q-1.7-.5-3.3-.5-1.9 0-1 .6 1 1.1 4.4 1.9a51 51 0 0 1 6.5 2l2.2 1.7 3.3 2.7q1.4 1.4 1.7 2 .3.3-.6 0a21 21 0 0 1-4.5-1.6q-1.3-.6-2.5-1.6a10 10 0 0 0-2.5-1.7 12 12 0 0 0-4.5-1.4l-1.7.1q-.3.4 1.1 1.1c1.4.7 1.5 1 1.5 1.4q0 .2-.4.3-.6 0-.7.3 0 .5.7 1l2 1h.1q.3.2-.6.3c-1.1.3-2.3.8-2.4 1.1q-.1.3.7.5 1.7.5 2.8.6H69a31 31 0 0 1 6.6.2 15 15 0 0 1 5.9 2.2l2 1.5c0 .2-.1.2-3 .3-4.8.3-5.6.2-9.1-1L68 177h-.7q-.3.2.2.7l.6 1q.2.3-1.3.4-1.4 0-1.8.5-.3.3.3.5 1 .7.7 1.3l-2.6.9-1.4.4q-.4 0-.1.4l1.5.6a19 19 0 0 0 4.8.7l1.5-.1h.8l1.3-.3 1-.2c.3 0 2.5-.7 3-1l1.3-.5 3-.9q4-1 5-1l2.6.4 2 .6q1.3.4 1.2.6l-1.3.1c-2 0-3.3.3-5.8 1a48 48 0 0 0-5.9 2l-1 .5-4.3 2.2c-1.3.7-2.8 2-2.8 2.2q0 .2.4.3c1.5.4 1.4.4 1.1 1A7 7 0 0 1 69 193c-1.5 1-1.6 1-1.4 1.1q.6.4 2.3.1l1.2-.1h.6v.2c0 .5-.5 1.7-1 2.6q-.6.7-.2.7z"/><path fill="#ffa300" d="M174.6 161.7q.6-.3.3-1-.3-1 .4-.6.3.3.4 0 .3 0 .4-.6l.1-.3.4.2q.8.7 1.2 0v-.5q-.1-.4-.8-.5l-.3-.1.3-.3q.3-.2.2-.5 0-.4-.4-.5-.5-.2 0-.5.7-.2.4-.8v-.4l.3-.2q.5-.1.6-.7t-1-.6q-.9 0-1.9 1-1 1.2-1.7 3l-.3 1.8q-.1 2.4.8 2.2zm-94-.4q.3 0 .4-1a8 8 0 0 0-.6-3.6 6 6 0 0 0-1.1-2q-1.1-1.2-2.2-1.3-.7-.1-1 .4v.4q.2.5.7.6.6 0 .2.3v.8l.4.3.2.2-.3.2q-.3.2-.3.6l.2.4q.4.4 0 .4-.6.2-.8.6 0 .3.3.6.3.1.8-.1l.5-.3.1.4q.1.5.5.6h.4q.5-.3.3.2v1c0 .1.7.4 1 .4zM188 160l.2-.4q-.3-.6.5-.5 1.5 0 1.9-.9l.1-.6v-.4h1.1l1.3-.1c.5-.4.2-1.4-.7-1.9q-.7-.4-1.2-.1t-1.4 1.4l-1.2 1.2-1.7 1.8q0 .4.2.6.6.3.9 0m-121-.7q.3-.1.2-.5l-4.3-4.4-.4-.1c-.8 0-1.7.8-1.7 1.5 0 .5.2.6 1.6.6h1v.4q-.1.7.4 1 .5.5 1.5.5 1-.1.7.4c-.2.6.4 1 1 .6m117.5-1 1.5-.6c.7-.4 2-1.8 2.5-2.7a5 5 0 0 0 .6-2.3q0-1.3-.4-1.8c-.5-.5-2.1-.3-2.3.4q0 .4-1 .1t-1.5-.1-.7.6q0 .8.5 1.4l.3.4-.3.2q-.4 0-.5.6c-.1.5.1 1.4.6 1.9l.2.3h-.4q-.3 0-.5.3c-.2.3-.2.2-.2.5q0 1 1.6.8m-113.6-.6.3-.3q.5-1-.7-1.1-.5 0-.2-.3.7-.6.7-1.6 0-.7-.5-1l-.2-.2.2-.4q.5-.4.5-.9 0-1.5-2.3-1-.9.5-.9-.1 0-.3-.4-.4-.3-.2-1-.2l-.6.1q-.4.3-.6 1.2a5 5 0 0 0 1 3.7l.6.7 1.5 1.4c.7.5 2 .7 2.6.4m126.4-1.3.4-.3c.3-.6 0-1.8-.3-2.2q-.2-.3-.6-.1h-.5q-.5.3-.5 1c0 .6.4 1.4.9 1.6q.3.3.6 0m3.2-.3q.4-.4 0-1.4c-.6-1-1.6-1.6-2-1.2s.1 1.6 1 2.5q.7.5 1 .1m-143-.3c.7-.3 1.2-1.4.8-2q-.2-.6-1-.6l-.5.2c-.2.2-.4 1-.4 1.5q0 .7.5.9c.5.2.3.2.6 0m-3.1-.2a4 4 0 0 0 1.4-2.2q.1-1-1-.5a3 3 0 0 0-1.2 2l.1.6q.2.3.7 0"/><path fill="#121212" d="M198 154.2q.1-.3-.1-.4-.2 0 0 .4.1.3.2 0"/><path fill="#ffa300" d="M56.4 153.4q0-.2-.1-.1-.2 0 0 .3zm146.7 0c.7-.2.3-1.2-.6-1.5l-1-.1h-1a1 1 0 0 0-.1 1q.3.5 1 .7zm-150-.7q.6-.2.8-.7.1-.4-.1-.7c-.3-.3-1.8-.2-2.4 0-.7.5-.8 1.4-.1 1.5q1 .2 1.8 0zm144-.8q.7-.9 0-2.2c-.5-.6-1.5-.7-1.8-.1q-.2.5 0 1.2.2.8.8 1.2t1 0"/><path fill="#121212" d="M198 152q.1-.4-.2-.3v.2q-.1.1 0 .1z"/><path fill="#ffa300" d="M58.2 151.5q.6-.4.7-1c.4-1.2-.2-2-1.1-1.6q-.9.3-1 1.3-.2 1.4 1 1.5zm141.4.2c.7-.2 1.1-1.3.7-1.9a2 2 0 0 0-1.5-.7l-.6.2q-.3.4-.4 1c0 .3.2 1 .4 1.2q.5.3 1.4.2"/><path fill="#121212" d="M56.6 151.4q0-.3-.3-.2v.1q0 .3.3.1"/><path fill="#ffa300" d="M55.9 151q.4-.3.5-1.1t-.4-1.1c-.6-.4-2 0-2.2.7q-.2 1.2 1 1.6z"/><path fill="#00843d" d="M197.8 149.4q.4-.7 1-.6c.6 0 .6 0 1 .3l.6.2c.2 0 1.8-1.1 2.5-1.7a59 59 0 0 0 5-5.7v-.3q0-.2-1.1.2c-1.4.4-1.8.7-3.8 2.4l-1.2 1q-.6.2-1.6 1.4l-2 2-1 .8.3.3zm-140.9-.3q.2-.2-.3-.6l-1.8-1.7-3.8-3.3-2.2-1.6-2.3-.8q-.8-.2 1.4 2.5c1.5 1.8 5.4 5.2 6 5.2l.5-.2q1.5-.7 2 .3.3.5.5.2"/><path fill="#ffa300" d="M176.5 146.8q1.1-.8.1-2l-.4-.3q-.5-.2.3-.6.5-.2.7-.5.5-.4.4-1-.2-.4-.8-.6h-1.5l-.5.1v-.4q.4-1.7-.7-2.3h-1.2c-.6.3-.7 1.7-.2 2.4q.2.5 0 .5l-.5-.2q-2-.6-1.9.8 0 .4.3.5.4.4 1.5.5h.6l-.3.4a4 4 0 0 0-1.4 1.2 1 1 0 0 0 0 1.1 1 1 0 0 0 1 .5q.3 0 .5-.2.5-.4 1.2-1.5l.4-.6.2.5c.3.9 1.1 1.8 1.8 1.8zm-93.7-.3q.4-.2.6-.8.1-.8-1.3-1.8l-.6-.4.7-.1.9-.1q1.3-.6.6-1.5-.1-.2-.7-.3l-.9.2q-1 .3-.5-.3.3-.4.3-1.1 0-1.1-.6-1.3a1.3 1.3 0 0 0-1.7.5 3 3 0 0 0-.2 1.7q.1.3 0 .4H79q-1.2-.3-1.9.1-.4.2-.4.6 0 .8 1.2 1.4l.4.2-.3.2q-.4.3-.7 1-.4 1.2.9 1.4.5 0 1.1-.6.5-.5.7-1.2l.2-.4.2.3q.4.9 1 1.3.8 1 1.4.6m111.8-.8q.7-.2 1.3-.9l.4-.3.2.2a2 2 0 0 0 1.6 1q.8 0 1-.4.3-.6-.8-1.8-.8-.8-.4-.8c1.2.3 1.2.3 1.6.2q1 0 1.3-.7.3-.3.2-.7 0-.8-.6-1.1-.6-.5-2.3.5l-.7.3-.3-.5a4 4 0 0 0-1.3-1.6c-1.2-.9-2.6-.9-3.1 0q-.3.8.8 2 .6.7 1.7 1.2.7.4 0 .4l-1.8.7q-1 .5-1.1 1.2l.1 1c.3.3 1.4.3 2.2 0m-133-.3q.4-.1.4-.8.1-.9-1-1.4l-2-.8-.4-.1.4-.3 1.8-1.2q.9-.8.9-1.6 0-.4-.3-.6c-.9-1-3-.3-4 1.3l-.2.6c-.2.5-.2.5-1 0-1.7-.8-2.3-.8-2.7 0q-.4.9 0 1.5.6.6 1.6.6l1.3-.2q.3 0-.4.8-1.1 1.1-.8 1.8.3.3.8.4.7 0 1.1-.3.6-.4.7-.8l.2-.2.5.5q.8.7 1.5.8c.4.1 1.3.1 1.6 0"/><path fill="#00843d" d="M198.4 140.4q1.3-.7 2-.4c.4.1.4.1.8 0 .5 0 1.4-.5 1.8-.7l.2-.1c.1 0 1-.7 1.5-1.3l1-.8q.8-.4-1.3-.4a10 10 0 0 0-5.2 1.4l-.5.2.3-1 1.3-3 .6-2.1v-.2l.6.8q.9 1.4 1.7 1.9 1.1.8-.1-1.2l-.4-.7-.8-1.3c-.7-1.2-.8-1.3-.5-2s.8-1 2.6-2.4l3-2.6c.8-.8 1.9-2.4 1.8-2.6q0-.4-1 0a8 8 0 0 0-3.1 1.6l-1.8 1.6-.8.6q-.3.2 0-1.6c0-1.3.2-2.2.4-3.6.2-1.1.2-1.4 0-1.8q-.2-.6-.6-.3l-.4.3-.1 1.6c0 2.3-.5 4.5-.8 4.5l-.4-.9a14 14 0 0 0-3-5.3q-.3-.1-.3 1.3 0 1.7.5 3l1.6 2.7.9 1.6a6 6 0 0 1 .1 3.5c-.6 3-1.4 5.4-2 6.4q-.4.7-.6-.4c-.5-1.8-1.5-4.2-2.5-5.4q-.6-.9-.8-.9l-.2.5.3 2.2c.5 2.3.5 2.3.3 2.3l-1-.5q-.5-.4-.6-.2a7 7 0 0 0 1 2.4l.8 1.1.7.3q1 .5 2 2.1l.2.2zM57 140l.7-1q.4-.5 1.3-.8l.7-.4.4-.5 1-2.2q.3-.6.1-.8l-.4.3q-1 .7-1.2.5c0-.3 0-1 .6-3 .1-.7.2-1.6.1-1.8l-.1-.2q-.5.1-1.7 2c-.5.8-1.3 3-1.6 4.2l-.3.7q-.4.2-1-1.6c-.7-1.6-1.6-5.6-1.6-6.6a7 7 0 0 1 1.1-3.5l1.5-2.4a7 7 0 0 0 .8-3.5c0-1 0-1-.2-1.2s0 0-.5.3a16 16 0 0 0-2.7 5.1q-.3 1-.4.8c-.3 0-.7-2.6-.7-4.8 0-1.3 0-1.4-.4-1.6q-.5-.3-.7.2c-.2.5-.2.6-.1 1.4l.5 5.7q.1.4-1.3-1c-1.5-1.5-2.3-2-3.6-2.6l-1.8-.5q-.5.1 1 2l2.2 2.2.7.6 1 .7a8 8 0 0 1 2.3 2.3c.4.7.3.9-.6 2.4l-1.7 3h.3c.2 0 1-.6 1.2-1l.7-1q.9-1.4.8-.4c.3 1.2.5 2 1.3 3.8q1 2.2.8 2.2l-.2-.1-2.5-1.1a8 8 0 0 0-3-.5q-1.7 0-1.6.2l.4.3 1 .9a7 7 0 0 0 3 1.8q.8.4 1.1.1.7-.3 2.2.5.9.6 1-.1"/><path fill="#ffa300" d="M187.2 135.8q1.5-.6 2-1.7.3-.7-.4-1t-2 .9c-.8.6-1 1.5-.8 1.8q.4.2 1.2 0m-118.9-.5q.3-.2 0-.8l-1-1q-.7-1-1.3-.9-.9 0-1 .7c0 .4.6 1.3 1.2 1.7q.7.5 1.6.5.4 0 .5-.2m136.4-2.2q.5-.3.5-1v-.4l.6.3q.5.3 1 .2l1-.1q.3-.3.4-1 0-.6-.6-1l-.8-.5-.5-.3.1-.4q.2-.6-.1-1.3t-1-.7q-.4 0-1 .3c-1.6 1-2.8 2.2-2.8 2.9q0 .6.8 1l.6.4q.2 1 .6 1.3.6.7 1.2.3m-154-.8a2 2 0 0 0 .6-1.3q0-.3.6-.4 1.5-.6.1-2.3-.7-.8-2-1.6-.6-.5-1-.4t-.6.2q-.8.7-.5 2v.3l-.4.2q-.7.3-1.1.9-.4.5-.2 1.2.1.4.4.5l.5.2 1.6-.4.4-.2v.3q0 .5.4 1 .1.2.5.2.4.1.7-.4m126.4.3.1-.5c0-1-1.7-3.1-2.6-3.6-.7-.3-1.5-.2-1.5.3q.1.5 1.1.6.4 0 .2.4v1q.3.6 1.3.5.7 0 .4.2-.3.5.2 1t.8 0m-99.2-.2c.4-.2.6-1 .4-1.1q-.3-.3.5-.2.6 0 .8-.2.7-.4.4-1.3v-.3l.4-.1q.5 0 .6-.3.6-.6-.3-.8-.9-.1-2 1.1c-.8.9-1.5 2.2-1.5 2.8q0 .7.7.4"/><path fill="#121212" d="M52 131.1h-.3v.1z"/><path fill="#ffa300" d="m198.5 131 1.3-.8.2-.6a6 6 0 0 0-1.3-4q-.5-.4-1.4-.5-1-.1-1.3.4-.7.8 1 1.9.7.3.2.5a2 2 0 0 0-1 1q-.2 1 .2 1.7.7.7 2 .3m-14.2-.3q.9-.5 0-1.4-.3-.4.5-.3.6 0 .8-.2l.4-.4q.4-.8-.3-1.4-.5-.3-.2-.3.4 0 .7-.6.2-.2.2-.9l-.1-.9q-.4-.6-1-.6-1 0-1.7.6l-.2.2v-.2l-.3-.4-.4-.4c-.3-.2-.3-.2-.8-.2l-.7.1-.2.4c0 .2 0 .8.3 1q.4.5-.8.4h-1a1 1 0 0 0-.4.9q0 .5.8 1 .5.2-.2.3-.6.2-.8.6t0 1q.4.7 1.5.1l.4-.2v.4q0 .5.2.7.7.8 1.6.3.4-.3.5 0 .5.7 1.2.4m-126.6-.3c.6-.3.8-1.3.4-2l-1-1-.1-.2.4-.3q.9-.5 1.1-1 .4-.6-.3-1-.3-.3-1-.2l-.8.1q-1 .4-1.7 2.4-.5 1.5-.2 2.3.4 1 1.4 1a4 4 0 0 0 1.8 0m13.4-.2.4-.4.2-.2.4.2q.7.4 1.4-.3.2-.1.3-.7v-.4l.3.1q1.2.9 1.7-.1.3-1.2-1-1.4-.4 0-.4-.2l.3-.3q1-.6.7-1.3-.1-.6-1.3-.5h-.8q-.2-.2 0-.4.5-.5.3-1.2c-.1-.4-1-.5-1.4-.3q-.5.3-.8.9l-.2.2-.4-.2c-.5-.5-1.5-.7-2-.4q-.5.2-.6 1.1 0 1.2.8 1.7l.2.1-.2.2q-.4.2-.6.9 0 .6.6 1l.8.2q.9-.1.4.4-.6.7-.2 1a1 1 0 0 0 1.1.3"/><path fill="#ffa300" d="M178.7 126.5v-.4q0-.6.4-1 .2-.3 1.1-.3l.5-.1v-.5q-.1-.5 0-.8.2-.5 1-.6.4 0 .7.2.6.2.7-.1.3-.5 0-1-.4-.8-1.3-.5-.6.1-.8.7 0 .3-.5 0-.3-.2-.8-.2a2 2 0 0 0-1.4.4q-.3.2-.3.5l.2.9.2.5-.4.2q-1.2.3-.8 1.4.2.6.7.7.6.1.8 0M76.8 126q.3-.2.5-.8.3-1-.7-1.1-.8-.1-.4-.8.3-.9 0-1.3l-.4-.3a3 3 0 0 0-2 0l-.3.1-.1-.2q-.4-.7-1.1-.7-.7.1-1 .5-.3.6 0 1t.8 0l1.2.1q.6.3.5 1.3v.5h.5q1.4.2 1.4 1.3-.1.7.5.5z"/><path fill="#00843d" d="M183.6 123.3q.3-.7 1.4-1.1a17 17 0 0 0 3.7-1.8l1.9-1.7 1.7-2.2.5-.7q.7-.9.4-.9a9 9 0 0 0-3 1.3l-1.7 1.2-2 1.3-.8.6q-.6.4-.6.1l2.2-2.2c3.2-2.8 4.6-4.3 5.3-5.3q.6-1-.5-.4c-.5.2-1.6.9-2 1.3l-1.5 1.2a32 32 0 0 0-4 4v-1.4h-.4q-.4.1-.4 0v-.9l.4-1.9c.6-2.7.6-2.9.4-3l-1 .7-.2.5-.6 3.5c-.3 2.6-.3 2.5-.6 2.5l-.4-.3q-.5-.7-.7.9v1q.1 1.2-1-.5-1-1.4-1.3-1.6h-1q-.3.2.2.5a6 6 0 0 1 2 2.5l.8 1.1.3-.2q.5-.4 1-.4c1.2 0 1.8 1.2 1.3 2.1q-.3.4-.2.5.2.1.4-.3M71.2 123l-.1-.4q-.2-.3-.2-.8 0-.9.8-1 .8-.5 1.6.1l.3.3q0 .2 1-1.3a7 7 0 0 1 1.9-2.3q.3-.4.2-.6l-1 .1q-.5.3-1.4 1.6l-.8 1-.2-.9q0-1.6-.4-1.7l-.4.2-.3.2q-.3 0-.3-.6l-.3-2-.1-1.2c-.4-2.3-.5-2.6-1-3q-.6-.5-.7-.3v.2l.3 1.6q.5 2.3.6 3.5.1.7-.4.4-.6-.1-.4.4 0 .9-.2 1l-.6-.8-2.8-2.9a17 17 0 0 0-4-2.9q-.6-.3-.6-.1v.3q.7 1.2 4.5 4.7l3 3q.1.2 0 .2.1.3-1.3-.8l-1.4-1-1.3-.9a17 17 0 0 0-3.4-1.8q-1-.4-.4.4l1 1.3c0 .4.2.6.8 1.4a14 14 0 0 0 4 3.2l2.6 1q.9.5 1 1 .3.6.4.2"/><path fill="#ffa300" d="M176.3 120.7q1-.4 1-2.7l.1-.9h.7a3 3 0 0 0 1.5-.4q.7-.4.6-1.2 0-.6-.5-1-.6-.2-1.6 0l-.4.1v-.5q.3-.6.1-1 0-.7-.5-1t-1.1 0q-.6.7-.7 1.5t-.4.4q-1.3-2-2.2-1.5-1 .3-.9 1.3.1.6 1 1.3.3.2.3.4l-.3.1q-1.3.3-1 1.6.1.8.6 1 .5.4 1.3.2.8-.4.5.2c0 .7.3 1.7.7 2q.3.4.6.3zm28.7 0 .3-.4q.2-.3 0-.8l-.2-.8-.1-.4.7-.2.9-.3q1-.6.6-1.6-.6-1-1.7-.8h-.6q-.3.2 0-.5c1-1.6.7-3-.7-3q-.6 0-1.2.7l-.5 1q0 .5-.4 0a5 5 0 0 0-2-1h-.5q-.3.1-.3 1t.9 1.8l.5.4c.1 0 .2 0-1 1.1q-1.3 1-.6 1.7l.3.3h.5c.6 0 .7 0 1.2-.3l.9-.6.4-.2.2.4c.3 1 1.1 2.3 1.7 2.6zm-125.8-.4q.7-.5.8-2v-.5h.4q.8.3 1.2.1t.7-.6.2-1-.3-.7l-.6-.4-.5-.2.4-.4.6-.7q.4-.3.3-.7.1-1-.9-1.2-.7-.2-1.4.5l-.6.7q-.4.8-.4 0-.2-1.2-1-1.7-.4-.2-1 .1-.6.7-.4 2.1v.4h-.4a2 2 0 0 0-1.4-.1q-.3 0-.4.5-.7 1.5 1.2 2l1.3.2.1.8q0 1.3.4 2t.9.8.8 0m-29.1-.2a5 5 0 0 0 1.6-2.5l.3-.5.6.3q.7.6 1.4.7 1.5.4 1.5-.8 0-.7-1.2-1.5l-.6-.6.3-.3c.7-.4 1.3-2 1-2.8q-.1-.6-1.3 0-1.1.3-1.5.8l-.2.2-.2-.4q-.2-1-1.2-1.4h-1.2q-.5.5-.6 1.2 0 .8.7 1.8l.2.3h-.9c-.9 0-.9 0-1.2.3q-.6.3-.6 1 0 1.2 1.9 1.5l.4.1v.6c-.5 1-.3 2 .4 2zm137-7q.4-.1.3-1c0-.8-.1-1-.6-1.5q-1.1-.9.3-.4c.7.2 1.7.2 2 0q.7-.5.6-1.4t-1.5-1h-2q-.3 0 0-.2.7-.4 1-1c.1-.5.2-1.4 0-1.7-.1-.8-1-1.2-1.8-1q-1.2.3-1.3 2.5l-.1.8-.4-.4q-1.1-1.6-2.2-1.4-1 .2-1 1.2c.1.8 1.3 1.8 2.4 2q.5.2.4.3l-.9.4q-2.2.8-2.5 1.5-.3.9.4 1.3l.8.1c.7 0 .9 0 1.7-.6.6-.4.9-.5 1.7-1.2q.6-.5.6.2c0 1 .6 2.2 1.1 2.5q.5.3 1 0m-119-.5q.6-.3.9-.7l.4-1.7.2-.6.8.6 2.3 1.4q.7.3 1.4.1.9-.3.6-1.3t-2.6-1.7l-.8-.4.5-.2 1.3-.7q1.4-1 .8-2-.5-.6-1.1-.6-1.2.2-2 1.5l-.4.4v-.5l-.4-1.8q-.4-.9-1-1-1-.2-1.6.3c-.7.7-.3 2.7.7 3.3q.6.3.1.3h-2.4l-.4.2q-.7.3-.6 1 0 1.8 2.9 1 .6-.1.4.1l-.4.4q-.5.4-.6 1.3-.1.5 0 .8.3.8 1 .5"/><path fill="#121212" d="M128.2 150.8c-.2 0-.2-.1.6-3l1.5-5.5.6-2 .2-.5 2.3-.2h.3l.2.4.2.6c.2.2 1.1 2.6 1.4 3.4l.6 1.3 1.1 2.7c.9 2 .9 2 .8 2.1 0 0-2 .3-2.3.2l-.2-.2-.6-1.3-.2-.4h-.9l-2.6.2-.4 1-.4 1-.9.2h-1.4"/><path fill="#ffa300" d="M130.1 150.3q.2.2.5-1.2l.3-.8 1.6-.2 2-.1q.4-.1.7.5l.7 1.4 1.5-.1q.3 0-.1-1l-1-2q-.1-.7-.4-1.2l-1.4-3.3-1-2.3h-1.1q-1.1 0-1 .2l-.4 1-.4 1.4c-.6 2-2 7-2 7.4q-.3.5.8.4z"/><path fill="#121212" d="m131.4 146.5.3-1.5.3-1.1.5-1.9.5 1 .8 2q.7 1.4.5 1.4.1.2-1.8.2z"/><path fill="#0033a0" d="M133.2 146.2q.8 0 .6-.5c-1-2.5-1-2.5-1.2-2.3l-.5 1.4-.2 1.4z"/><path fill="#121212" d="m123 150.7-.8-.1-.2-.4-.3-1.3-1-3.4-.7-2.5-.3-1.2q-.7-2.3-.5-2.2l2.3.1.2.5.3 1.3.4 1.4 1.1 3.8.1-.1.4-1 .7-2 1-2.8.4-.9 2 .1q.3 0 .3.3l-.3.8-3.6 8.8c-.3 1-.2.9-1.6.8"/><path fill="#ffa300" d="m124 150.3 1.3-3.1 1.1-2.8.7-1.9c.8-1.7.8-2 .7-2l-.8-.1c-.8 0-.8 0-1 .5l-.7 2-1 2.6-.9 2.6q0 .4-.3-.6l-.3-1-1.5-6.4-.9-.1c-.9 0-.9 0-.5 1.2l1.2 4.5.4 1.4 1 3q0 .2.5.2z"/><path fill="#121212" d="m114.8 149.8-2.3-.5-4.5-1-.5-.3.2-1.3.2-1 1-4.2.4-1.8.3-1.3c.2-.8.2-.8.4-.8h.5l1.2.3 1.5.4 2.8.6c1.4.3 1.4.3 1.5.5l-.4 1.8-.2.1-2.8-.6c-2.2-.5-2.2-.5-2.3-.3l-.4 1.6c0 .1.2.2 1.9.6 2.6.5 2.8.6 2.8.8l-.5 1.8h-.7l-3-.7q-1.1-.3-1 0l-.5 1.8v.2l3.6.9 1.4.3c.4.1.4.2.1 1.1-.2 1.1-.2 1.1-.7 1"/><path fill="#ffa300" d="m115 149.3.2-.6c.2-.6.2-.6-1.3-1l-3.7-.8c-.3-.1-.3-.3 0-1.5.3-1.4.4-1.5.6-1.5l4 .9q.6.1.7-.2l.1-.7v-.3l-.2-.1-3.8-1h-.4c-.3-.1-.3-.2 0-1.1l.2-1 .1-.5q0-.2 1.5.1l3.4.8q.4 0 .4-.2c.2-.3.2-1 .1-1q0-.2-1.8-.5l-1.6-.4-3.2-.6-.2.1-.6 2-.3 1.4-.4 1.7-.4 1.8c-.5 2-.6 2.5-.5 2.6s.1.2 1.8.6c4.6 1 5.2 1.1 5.3 1"/><path fill="#121212" d="m140.4 149.7-.4-1.5-2.1-8.5q-.1-.3 0-.4l3-.8 1.3-.3c1.1-.3 1.5-.3 2.5 0q1.2.6 2 1.7a5 5 0 0 1 1 2.2l.2 2.5a6 6 0 0 1-.8 2.5 4 4 0 0 1-1.3 1.3l-1.6.5-2.8.7q-1.2.3-1 .1"/><path fill="#ffa300" d="M143.2 148.8c2.3-.6 2.5-.7 3.1-1.2q1.5-1.5 1.3-4.2-.3-3-2.2-4.4a3 3 0 0 0-1.7-.6c-.7 0-1 0-3.7.7-1.6.4-1.6.4-1.7.6l.3 1.5 1.4 5.8c.4 1.8.5 2.2.7 2.3z"/><path fill="#121212" d="m142 147.4-.2-.7-.5-1.9a19 19 0 0 1-.9-4.3l2.6-.6q1.3 0 2.2 1.6a7 7 0 0 1 .6 3.9c-.4 1.1-1 1.6-3 2q-.8.2-.8 0"/><path fill="#0033a0" d="M143.3 146.9q1.1-.3 1.6-.7 1-1 .4-3.5a4 4 0 0 0-1-1.8q-.5-.6-1.3-.6l-2 .5q-.3-.1 0 1l.4 1.8.7 2.8q0 .7.4.7z"/><path fill="#121212" d="M150 147.1v-.7l-.2-2.1-.4-5.8-.2-2.6s2-1 2.4-1q0-.2 1.3 1.2l5.7 6.2.7.8-1.5.8c-.7.4-.7.4-1.5-.5l-.7-.7-1.6.6-1.6.8v2.1l-.2.2-2 .9z"/><path fill="#ffa300" d="M151.3 146.4q.7-.3.7-.5v-2l3.5-1.6q.2-.1.7.5l1 1 .8-.4q.7-.3.6-.4t-1-1.3l-4.5-4.8q-1.4-1.6-1.6-1.6l-1.9.8.2 3.6.6 7z"/><path fill="#121212" d="m151.8 142-.3-2.5-.1-2 3.2 3.5-.5.3-.8.4-1.4.5z"/><path fill="#0033a0" d="m153.2 141.3.7-.4v-.2l-2-2c-.1.2.1 2.8.2 2.9s.4 0 1-.3"/><path fill="#121212" d="m103.1 146.6-1.3-.7-.3-1.7-.5-4-.2-1.4h-.3v.2l-.3.4-.6 1.5-1.2 2.7q0 .5-.3.7c-.1.1-.2 0-1.1-.3l-.9-.4q-.2 0-.2-.3l.6-1.4.6-1.6 1.3-3 .5-1 .6-1.5.6-1.2 2.1 1 .3 1.6c.7 5.6.7 5.5.8 5.5l.2-.2 2.2-5.2.2-.2 2.1 1-.5 1.4-1.3 3-1.3 3-1 2.3z"/><path fill="#ffa300" d="m104.3 145.3.9-2.2.7-1.7 1.5-3.6q.3-.6 0-.6l-.6-.4-.7-.2-.4.6-.8 1.9-1.1 2.8-.5 1q-.2 1-.5-1l-.4-3.5-.3-2q-.1-1.7-.3-1.7l-1.3-.6h-.2q-.3.2-1 1.8l-3 7.2q0 .2.8.6t.9 0l.4-1 .6-1.2.6-1.4.3-.8.6-1.4.4-.8.2.7.1 1.4.8 6.1q.1.6.8.7l.6.3h.3z"/><path fill="#121212" d="m146.7 129.7-2.2-1.6-1-.7-.7-.5-1.9-1.4-1-.6-.8-.6-1-.7-.7-.6-2-1.4-.7-.5-1.8-1.3-3.7-2.6-1-.8-1-.6-1.8 1.2-1.2.9-3 2.1-1.6 1.1-2.6 2-1.9 1.3-1.2.8-6.2 4.5h-.2l.3-1 .7-1.8.6-1.8.6-2 2.4-7.2 2.9-9-1.4-1.2-1.8-1.3-1.4-1-2.4-1.8-3.5-2.7-1.4-1-1.3-1-1.4-1-2-1.5-2.9-2.2h12c11.3 0 12 0 12.2-.2l.7-1.8.7-2 .7-2.4 1.8-5.5 1.8-5.5c1.3-4 1.8-5.6 2-5.6l1.6 5.1 1.6 4.8 1.8 5.6 2.5 7.4 6.6.1 15.5.1 2.2.1-2.7 2-1.8 1.3-2 1.6-2.4 1.6-3.2 2.4-1.8 1.4-2.2 1.6-3.2 2.4c-.1.1-.2-.1.7 2.7l2 6 1 3.5 2.6 8 .4 1.4c.6 1.8.6 1.8 0 1.4"/><path fill="#fff" d="m146.5 128.8-.4-1.4-1.7-5.4-1.3-4-.5-1.6-.6-2-.7-2-.5-1.5-1.3-4.3c0-.2.6-.6 2.5-2l3.4-2.4 2-1.4 4.2-3.1 1.8-1.4 3-2.1 1.8-1.4-.1-.2h-18.5c-4.9 0-5 0-5-.4l-.8-2.5-1-2.7-1.9-6-1-3.3-.9-2.6-.4-1.2-.3-1-.6-2q-.3-.8-.5-.5l-2.5 7.3-1.6 5.1-.4 1.2-.5 1.4c-2 6.2-2.2 7-2.4 7H96.5v.2l3 2.3 2.5 1.8 2.1 1.6 4.4 3.3 2.9 2.1 2.2 1.7 1.7 1.4-.2.9-1 2.9-4.4 13.5-1.5 4.6c0 .4.1.3 2.1-1.2l1.8-1.3 2-1.4 2.1-1.5 1.4-1 1-.8 2.6-1.9 1.5-1 3-2.2 1.3-.9h.5l3 2.3 3.6 2.5 1 .7 1.7 1.2 1.4 1 3 2.2 1.1.8 3.4 2.4q.8.6.8.1"/><path fill="#121212" d="M213.2 113.5q-.9-.3-2-1-3.4-2.3-5-8c-.4-1.5-.8-1.8-3-2.3l-2.2-.5-1.4-.4q-2.6-.7-5-1.8l-4.5-2.3-3.6-3-1.9-2.4q-.2-.4-.4-.4l-.6.3c-1.1.8-1.7 1-2.7 1a4 4 0 0 1-2-.5A10 10 0 0 1 175 89l-1.6-2.8-.9-1.6-1.7-2.7-1.4-2-2.2-2.7-1-1.3-3.9-3.8-3.7-3-4.5-2.8-.7-.4-4-2-3.1-1.2-1.2-.4-4.2-1.2a58 58 0 0 0-13.2-1.5 60 60 0 0 0-16.2 2.1l-4.7 1.6-1.2.5-1.6.8a52 52 0 0 0-9.9 6l-.8.7-2.5 2.3-1 .9-4.4 5-1 1.3a46 46 0 0 0-3.3 5.5q-2 3.7-4.7 5.2l-1 .4q-.4.2-1.3.2l-1.3-.1-1.7-.9-.6-.2-.6.7a19 19 0 0 1-4.6 4.4l-.7.5c-1 .6-2.9 1.7-4.3 2.2a43 43 0 0 1-7.6 2.5l-3 .8c-.8.4-.9.6-1.3 2a18 18 0 0 1-2 4.7q-1 1.4-1.7 2a10 10 0 0 1-3.4 2q-.4.3-.6 0-.2 0-.3-.2-.2-.4.7-.9a6 6 0 0 0 2.1-2.7 12 12 0 0 0 1.3-5.4c0-1.4.1-1.7.6-2.4a9 9 0 0 1 3.9-3.4 38 38 0 0 0 6-4.2 36 36 0 0 0 4-3.8l.7-.7q1.2-1.5 2-3 .4-.8.2-.9-.4-.3-5.5-1.4L54 83l-1.4-1q-1.6-2.1 1.3-6.4a32 32 0 0 1 3.6-4.2 19 19 0 0 0 3.5-4c.4-.8.5-1 .1-1.4a12 12 0 0 0-3-2.6 18 18 0 0 0-6.8-2.8c-1.5-.3-1.9-.6-2.7-1.9q-.3-.6-1.3-1.7C45 54.6 45 54.7 45 53.7a4 4 0 0 0-.6-1.8 5 5 0 0 0-2.3-1.9c-.5-.3-1.9-.8-2.2-.8q-.5-.1-.5-.4l.2-.3c.3-.4 3.4-.3 5 .2q2.4.8 3.6 2.7.8 1.3 1.1 3.2l.2.6.8.2a22 22 0 0 1 7.8 2 8 8 0 0 1 3 2.2l1.5 2.2 1.3 2.4 2.3 4q1 1.5 1.3 1.6l.3-.3.9-1.2 3.8-4.6 5.8-5.8 1.7-1.5 3-2.4 2.5-1.9 5.3-3.3 7-3.5 2.7-1.1 2-.7 1.8-.6a57 57 0 0 1 8.1-2 73 73 0 0 1 12.3-1.5 88 88 0 0 1 21 2.1l.7.2c3.7 1 9 2.8 11.8 4.1l4.9 2.5 6.8 4.3a78 78 0 0 1 6.6 5.3 96 96 0 0 1 7.5 7.8l2.7 3.6.7.8c.3 0 2.2-3 2.8-4.2l.7-1.3.8-1.6 1.2-1.9a8 8 0 0 1 3.5-3.3l2.4-1c2.2-.6 3.2-.8 5.5-1 1.2-.2 1.3-.2 1.3-.9q.2-1.5.8-2.8 1.3-2.3 4.5-3c.7-.2 1-.3 2.2-.3h1.7q.7.1.6.5.2.2-1.3.6a7 7 0 0 0-3 1.8 4 4 0 0 0-1 2.4l-.3.8-1.2 1.4q-2 2-2.3 2.7a4 4 0 0 1-1.3 1.5l-.9.2a18 18 0 0 0-5 1.7 18 18 0 0 0-4.5 3q-1 1-1 1.3a14 14 0 0 0 3.3 4.5q1.4 1.3 3.3 3.7c1 1.3 2 3.2 2.3 4.4.2.8.3 1.9 0 2.4q-.6 1.9-4.4 2.7l-1.7.3-3.7 1.2c-.2.3 1.4 2.7 2.7 4.4a49 49 0 0 0 7.8 6.6l2.3 1.4 2 1.3 1.9 2 .5 1c.1.5.2.6.2 1.8q0 2.6 1 4.6a8 8 0 0 0 2.5 3.4q.8.5.6 1t-1 .1"/><path fill="#ffa300" d="m213.9 113.2-.3-.4c-.6-.5-1.5-1.4-1.8-1.9a14 14 0 0 1-2-6.6c0-1.3 0-1.4-.2-1.8l-.4-.8a12 12 0 0 0-2.5-2.3l-1.2-.8-4-2.5-.5-.4-.6-.5-.6-.5a43 43 0 0 1-4.6-4.4 23 23 0 0 1-3-4.3l-2 .7-1 .3-2 1.1-1.6 1.6-1 1.4c0 .2 1.2 2 2 2.8.8.9 3.1 2.7 4.3 3.4l3.9 2c2.2 1 4.5 1.7 9.2 2.8q1.3.3 1.8.9l.4.8a22 22 0 0 0 1.8 4.6q1.6 3 4 4.2c.8.6 1.8.8 1.9.6m-172.5-.8a8 8 0 0 0 4.2-3.2l.6-.8a17 17 0 0 0 2-4.9c.3-1.2.7-1.6 2-2l1.2-.3 1-.2 1.2-.3 3-1a37 37 0 0 0 6-2.3l.4-.3 3.4-2.3a16 16 0 0 0 2.9-2.9l.9-1.3c0-.2-1.3-1.8-1.8-2.4l-2.6-1.7-3.3-1.2q-.2 0-.5.7l-2.4 3.5a40 40 0 0 1-5.5 5l-1.4 1.1-3 2-2.4 1.4a10 10 0 0 0-2 2.1c-.4.8-.5 1-.5 2.5a13 13 0 0 1-1.6 5.9 6 6 0 0 1-2 2.3q-.6.5-.4.6c.2.2.1.2.6 0"/><path fill="#ffa300" d="M181.8 92.3a6 6 0 0 0 3.3-2.4A8 8 0 0 1 187 88c.7-.5 1.1-.8 2.6-1.4a36 36 0 0 1 6.7-2.1l2.7-.7q.3-.1-.5-.3-2.7-.7-6-5l-1.8-2.7-1.2-1.8-1-1.6-.8-1-1.1-1.8-3.2-4.3-4.5-4.8-4.6-4-.8-.8-3.2-2.3-1.3-1-3.5-2.3-1.7-1-3.7-2-1.7-.9-1-.4a62 62 0 0 0-9.5-3.4l-2.8-.8-1-.2-1.3-.2-1-.2-.8-.2-1-.1-3.4-.5h-1.2a69 69 0 0 0-16.8 0l-5.5.7a46 46 0 0 0-6 1.4 48 48 0 0 0-7.1 2.4 84 84 0 0 0-8.5 4L86.1 52l-1.4 1-4.5 3.5-.5.4-3.1 2.8-2.9 3-1.3 1.4-2.6 3.1-.7.9-1 1.4-1.2 1.7-1 1.5-1 1.4-.8 1.1-1 1.5-.8 1-.8 1a13 13 0 0 1-4 3.4l-1.7.6-.2.1c-.3.3-.2.3 3.4 1.1l5.7 1.8q1.6.6 2.8 1.4a10 10 0 0 1 2.2 2.1q1.3 1.9 3 2.4 1 .3 2.3 0 2.3-.5 4.5-3.5c.8-1 .8-1 1.6-2.4l1.6-2.8 1.5-2.2.8-1.2 1.6-2 1-1.2a63 63 0 0 1 5.3-5.1 56 56 0 0 1 5.5-4 52 52 0 0 1 10.1-5q.4 0 .7-.2l1.1-.3a56 56 0 0 1 17.3-2.5 57 57 0 0 1 16.1 2.2l4.7 1.7.8.4 3 1.4 3.7 2a44 44 0 0 1 6.1 4.5 50 50 0 0 1 5.8 6l2 2.5.7 1a65 65 0 0 1 4.8 7.8q3.1 4.1 6.5 3.5"/><path fill="#121212" d="M83 73.3 77.8 68l-1-1c0-.2.7-.8 3-3q1.4-1.4 2.7-1.5.8-.1 1.5.4a3 3 0 0 1 1.3 2q-.2.7.8.7t1.8.9l.5.8q.4.5.3 1a3 3 0 0 1-1 2.7L84 74.3z"/><path fill="#ffa300" d="m84.6 71.3 2-2q.3-.7 0-1l-.7-1h-.6c-.4 0-.6 0-1.8 1.3l-1 1 1.5 1.7q.3.3.6 0m-2.3-4q.9-.9 1-1.2a1 1 0 0 0 0-1.1q-.6-.9-1.7-.3c-.4.3-1.9 1.8-1.9 2l.7.8q.7.7.8.6t1.1-.9"/><path fill="#121212" d="M170.3 73.5c-.9-.8-.8-.6-.6-1.7l.6-2.4.2-1.1.3-1.1c.5-2.3.5-2.3.3-2.3l-1 1-1.7 1.8-1.4 1.5q-.5.7-.6.5l-1.5-1.4 1.9-2 4.2-4.6 1-1c.3 0 1.6 1.3 1.6 1.5l-.6 2.4c-.5 2-1 5-1 5.1q0 .3.5-.2l3.2-3.4 1-1 1.5 1.4-.9 1-1.7 1.8-1.8 2L171 74zm-80-5.6-.1-.2-.7-2.5-.3-1-1.6-6q-.3-.8 0-.8c.1-.2 1.7-1.3 1.8-1.3l.6.4.8.6 1 .7 1.6 1.2 2.9 2.1c2 1.5 2 1.4 1.9 1.6l-1.6 1.1q-.2 0-1.2-.7l-.7-.4-2.9 2q-.3 0 .1 1.3c.3 1 .3 1-.4 1.4l-.7.5q-.4.3-.5 0"/><path fill="#ffa300" d="m91.5 62.6.5-.3.7-.5q.8-.5-.1-.9l-1.4-1-1-.6c-.2 0-.1.4.5 2.5.4 1 .4 1 .8.8"/><path fill="#121212" d="m163 66.9-1-.7q-.3-.2-.2-.5c0-.5.2-.8 1.2-2.2q.6-.8 0-1.6l-2.3-1.6q0-.2-1.2 1.6l-1.2 1.6-1.6-1.1.4-.9 1.5-2.1 1.6-2.4.9-1.4 1.3-1.7q.1-.2 1 .5l1.6 1 1.7 1.2q1.2.8 1.4 1.5.4.8 0 1.8a3 3 0 0 1-.7 1.4q-.7.8-1.6.8-.8-.1-.5.7v.7c0 .4 0 .5-.7 1.4-.7 1.3-.8 1.5-.8 1.8q0 .5-.2.5z"/><path fill="#ffa300" d="M165.3 60.4q1.3-.8.7-1.9a14 14 0 0 0-2.8-1.9l-.3.3-1.1 1.7q-.2 0 2 1.5.8.8 1.5.3"/><path fill="#121212" d="m100.5 61.1-.7-1.3-2.9-5.8-.2-.2-2 .8q-.7.4-.8.3l-.4-.7q-.4-.6-.3-.7a47 47 0 0 1 7.4-3.7l.7 1.4-.5.4-2 1c0 .3.1.6 1.3 2.9l2.4 4.9-.9.5-.9.4zm51.6-.6a5 5 0 0 1-2.6-1.4 4 4 0 0 1-1.4-3q0-1.3.3-2.5 1-2.6 3.1-3.7a4 4 0 0 1 2-.4 6 6 0 0 1 4 2c1.1 1.4 1.2 3.9.3 5.8a6 6 0 0 1-3.2 3.1q-1.2.4-2.6 0"/><path fill="#ffa300" d="M153.8 58.5c1.3-.4 2.4-2 2.6-4q.1-1.8-1.7-2.8c-.4-.2-.5-.2-1.2-.2q-.8 0-1 .2a5 5 0 0 0-1.9 2c-.6 1.2-.6 2.7-.1 3.5a3 3 0 0 0 3.3 1.3"/><path fill="#121212" d="m108.6 57.7-.7-1.9c-2-6-2-6-2.2-6l-.6.1-1.3.4c-1 .4-.9.4-1.2-.3q-.4-1-.2-1.1l3-1.1 4.4-1.5c.4 0 .4-.1.7.8q.3.8.1.8l-.8.3-1.8.8s0 .6 1.1 3.7l1.4 3.9v.6l-1.7.6zm33.9-1-.8-.2-1.9-.5c-1.7-.4-2-.5-2-.6l.2-.7.4-1.5 2-7.8.3-.1.9.2 2.9.8q2.2.6 2.8 1.7c.2.4.2.4.2 1.3l-.1 1.2-.7.8-.5.5.1.3q.7 1.4.4 2.4l-.3.8a4 4 0 0 1-1.3 1.3c-.4.1-.5.2-1.3.2z"/><path fill="#ffa300" d="M144.1 54.8q.4-.2.7-.8.1-.8-.3-1.3c-.2-.3-.4-.3-2-.7-1.2-.3-1.3-.3-1.5-.1l-.5 2.2c0 .2.3.3 2.2.7q.9.3 1.4 0m.9-4.4c.7-.4.8-1.6 0-2-.2-.2-1.4-.5-2.6-.8q-.4 0-.5.4v.4l-.2.7-.1.5q-.2.3.8.5c1.7.5 2.1.5 2.6.3"/><path fill="#121212" d="m114.8 56-.4-1.8-.4-2.5-.5-2.8-.4-2q-.3-1.3 0-1.3l.8-.2.9-.2q.3 0 .4.6l.3 1.8.4 2.5.3 2 .5 1.7 1-.2 3.7-.6.2.5.1.8v.4l-2.8.5-1.3.3zm8.8-1.4v-1.1l-.2-5.1v-4.2l3.8-.1h3.7v1.7h-1.5l-2.5.1c-1.2 0-1.2 0-1.3.2l.1 2c.1.2.4.2 2.3.1h2.4l.2.1V50h-.2l-2.4.1-2.2.1c-.2.1-.2.2-.2 1.3l.1 1.3h5.6v1.8h-1.1l-6.2.1z"/><path fill="#ffa300" d="M201 83.1a3 3 0 0 0 1.5-2.4c0-.9-.4-2.3-1-3.2l-.3-.6-1.4-2-.8-1-.8-1-1.4-1.4-1.5-1.7-2-2.9a8 8 0 0 1-.8-3.4q0-1-.3-.6l-2 3.3A23 23 0 0 1 188 70l-.4.6.2.5 3.2 4.8 3 4q1.4 1.8 3 2.7 1.4.8 2.9.8.8 0 1-.2m-144.6-.6a9 9 0 0 0 2.6-1.4 25 25 0 0 0 5.2-6.2l2.9-4.1.3-.5-.4-.7-2.6-4.2-1.6-2.8q-.2-.5-.3 1l-.1 1.2c-.2.6-.7 1.8-1 2.2l-.2.5a23 23 0 0 1-3.1 3.7l-1.1 1-.9 1a19 19 0 0 0-3 4.2l-.7 2c-.3 1.5.5 2.9 1.9 3.2z"/><path fill="#ffa300" d="m194.1 65.5 2.3-1.8a19 19 0 0 1 6.9-3l1.5-.5q.7-.3 1.3-1.3.4-.9 1.9-2.3l.3-.4c0-.3-.1-.3-2-.2l-4 .3-1 .2c-1.3.2-3.1.7-4.3 1.3q-3.3 1.7-4.1 4.3a6 6 0 0 0 .4 4q0 .2.8-.6m-132.3 0a6 6 0 0 0 .1-4.1q-.7-1.7-2.4-3a16 16 0 0 0-3.5-1.6 25 25 0 0 0-4.4-1c-2-.2-4.9-.3-5 0q-.2 0 .6.8l1.6 2q.6.8 1.2 1.2l1.3.4 4 1.3a23 23 0 0 1 5.6 3.9q.8.9.9 0m147-10q.6-.1.8-.6l.2-.8q.1-1.6 1-2.5l1.8-1.3 1.2-.5q2.1-.5 0-.6a9 9 0 0 0-5.7 1.5 5 5 0 0 0-1.7 2.1l-.5 2v.9h1.4zM49 55.2l.2-.2-.6-2.2-.6-1.3a6 6 0 0 0-3.7-2.5q-1.3-.4-3-.4l-1.3.1q-.1.1.9.5 1.3.4 2 1a6 6 0 0 1 2 1.8l.3 1.7q0 1.4 1.5 1.6H48z"/></svg>